<svg xmlns="http://www.w3.org/2000/svg" width="174.903" height="115.091" viewBox="0 0 174.903 115.091">
  <g id="BADI" transform="translate(-285.07 -110.985)">
    <g id="Group_28" data-name="Group 28" transform="translate(290.997 110.985)">
      <path id="Path_63" data-name="Path 63" d="M299.637,190.873V111.157c1.03-.047,2.325-.152,3.621-.157,4.487-.017,8.974-.026,13.461.009,12.626.1,19.619,6.827,20.262,19.456.44,8.641-.423,10.89-7.161,18.436,8.749,5.775,7.221,14.7,6.934,23.207a24.162,24.162,0,0,1-1.215,6.2c-1.882,6.1-5.935,10.4-12.259,11.188C315.573,190.461,307.743,190.448,299.637,190.873Zm11.569-12.214c2.254,0,4.332.14,6.386-.027,5.654-.46,7.942-2.263,8.542-7.9a41.67,41.67,0,0,0-.561-12.177,7.216,7.216,0,0,0-4.241-4.569c-3.155-.98-6.659-.835-10.126-1.171Zm.125-56.988v22.162c5.209-.114,10.739,1.209,13.613-4.245,2.48-4.708,2.666-10.154-.3-14.627C321.508,120.225,316.165,121.516,311.331,121.671Z" transform="translate(-299.637 -110.985)" fill="#c39569"/>
      <path id="Path_64" data-name="Path 64" d="M544.781,190.744V111.679c7.709,0,15.338-.7,22.777.183,8.776,1.046,14.16,8.072,14.364,17.826.29,13.824.382,27.667-.005,41.486-.36,12.833-7.629,19.42-20.577,19.561C555.894,190.793,550.446,190.744,544.781,190.744Zm11.774-68.53v57.621c10.479,1.368,13.574-1.263,13.585-11.148q.018-17.556,0-35.112c0-10.061-2.446-12.365-12.465-11.738A6.5,6.5,0,0,0,556.555,122.214Z" transform="translate(-445.036 -111.24)" fill="#c39569"/>
      <path id="Path_65" data-name="Path 65" d="M442.844,190.6l-3.624-16.526H423.741c-1.127,5.468-2.268,11-3.433,16.652h-11.6l17.827-79.008h9.937L454.318,190.6ZM438,162.944c-1.936-9.874-3.744-19.089-5.552-28.3l-.721-.034c-1.794,9.285-3.588,18.57-5.476,28.338H438Z" transform="translate(-364.331 -111.42)" fill="#c39569"/>
      <path id="Path_66" data-name="Path 66" d="M682.092,190.786H670.86V111.768h11.232Z" transform="translate(-519.815 -111.45)" fill="#c39569"/>
    </g>
    <g id="Group_29" data-name="Group 29" transform="translate(285.07 212.271)">
      <path id="Path_67" data-name="Path 67" d="M285.879,363.193q-.265.03-.471.037t-.338.022v-1.31q.309.03.787.059t1.207.051q.728.023,1.751.037t2.421.015q1.31,0,2.3-.015t1.715-.037q.721-.022,1.2-.051c.319-.02.567-.039.743-.059v1.31q-.516-.044-1.914-.1t-3.974-.059q-1.443,0-2.495.015t-1.8.044v9.861h7.006q.75,0,1.3-.007t.964-.03q.412-.022.736-.051t.633-.074v1.3q-.295-.044-.611-.066t-.721-.044q-.4-.022-.957-.029T294.047,374h-7.035v.618h-1.251a8.5,8.5,0,0,0,.1-1.075q.022-.633.022-1.3Zm6.152,8.816q-.309-.029-.846-.029h-2.421q-.471,0-.765.015c.009-.108.015-.226.015-.353v-2.958c0-.127-.005-.245-.015-.353q.294.03.765.03H290q.648,0,1.185-.007t.846-.022a2,2,0,0,0-.03.361v2.973A2.069,2.069,0,0,0,292.031,372.009Zm3.5-4.533q-.53-.015-1.4-.015h-3.893q-.743,0-1.273.015a3.47,3.47,0,0,0,.044-.354q.015-.191.015-.4v-1.943c0-.147,0-.284-.015-.412a3.461,3.461,0,0,0-.044-.353q.53.03,1.273.029h1.979q1.045,0,1.913-.007t1.4-.022q-.015.176-.022.368t-.007.4v2.362A1.864,1.864,0,0,0,295.534,367.476ZM290.9,369.3h-1.81v1.751h1.81Zm3.4-4.268h-4.077v1.442H294.3Zm2.576,7.005q-.324-.014-.868-.022t-1.192-.007H293.6q-.449,0-.758.015.015-.162.015-.353v-2.958c0-.127,0-.245-.015-.353q.309.029.758.029h1.214q.648,0,1.192-.007t.868-.022a1.991,1.991,0,0,0-.029.361v2.973A2.062,2.062,0,0,0,296.873,372.038Zm-1.089-2.708h-1.84v1.722h1.84Z" transform="translate(-285.07 -361.118)" fill="#231815"/>
      <path id="Path_68" data-name="Path 68" d="M326.864,368.906q.412-.147.787-.294t.67-.295a1.658,1.658,0,0,0-.088.574,2.556,2.556,0,0,0,.118.574q-.972.264-2.009.647t-2.215.9a4.991,4.991,0,0,0-.118-.67,3.459,3.459,0,0,0-.235-.625q.427-.074.942-.192t1.074-.28v-4.268q-.56.015-.964.037a6.391,6.391,0,0,0-.743.081v-1.222q.339.044.743.066t.964.022v-1.575q0-.648-.007-1.074t-.015-.677q-.008-.25-.022-.383a5.855,5.855,0,0,0,.618.081q.294.022.677.022c.1,0,.155.025.169.074s-.027.1-.125.147a.389.389,0,0,0-.221.368v3.017a10.93,10.93,0,0,0,1.516-.089v1.222a5.344,5.344,0,0,0-.677-.081q-.368-.022-.839-.022Zm5.475-1.487a12.853,12.853,0,0,1-.618,1.818,8.716,8.716,0,0,1-.839,1.516,9.038,9.038,0,0,1-1.111,1.31,11.063,11.063,0,0,1-1.435,1.17,3,3,0,0,0-.493-.471,3.269,3.269,0,0,0-.6-.368,9.8,9.8,0,0,0,1.486-.949,7.057,7.057,0,0,0,1.141-1.119,7.384,7.384,0,0,0,.854-1.332,9.53,9.53,0,0,0,.611-1.575h-1.4v1.075h-1.177q.073-.4.1-.729t.029-.728v-3.929q0-.545-.029-.92a5.311,5.311,0,0,0-.088-.655q.426.074.9.111t1.126.051a8.058,8.058,0,0,0,.213-.795,7.66,7.66,0,0,0,.125-.839,5.069,5.069,0,0,0,.662.184,1.9,1.9,0,0,0,.589.037q.147-.015.177.044c.02.039-.015.1-.1.177a1.787,1.787,0,0,0-.133.147c-.039.049-.086.116-.14.2s-.118.194-.191.331-.164.309-.273.515h2.06q.736,0,1.361-.037a7.028,7.028,0,0,0,1.038-.125,8.586,8.586,0,0,0-.132,1.575v2.781a8.191,8.191,0,0,0,.132,1.648q-.485-.059-1.427-.088T332.338,367.419Zm-2.4-4.871v1.59h1.987v-1.59Zm0,2.458v1.56h1.987v-1.56Zm3.562,3.223q.383-.088.206.206a2.035,2.035,0,0,0-.169.485,2.8,2.8,0,0,0-.1.706v2.134a1.135,1.135,0,0,0,.03.287.275.275,0,0,0,.125.169.659.659,0,0,0,.287.073q.192.015.5.015a6.659,6.659,0,0,0,.846-.044,1.4,1.4,0,0,0,.53-.162.78.78,0,0,0,.3-.316,2.256,2.256,0,0,0,.177-.522,2.189,2.189,0,0,0,.515.456,1.278,1.278,0,0,0,.485.191,2.258,2.258,0,0,1-.287.625,1.189,1.189,0,0,1-.478.39,2.577,2.577,0,0,1-.788.206,10.44,10.44,0,0,1-1.229.059q-.692,0-1.089-.037a1.192,1.192,0,0,1-.6-.184.658.658,0,0,1-.25-.434,4.545,4.545,0,0,1-.052-.773v-2.134q0-.6-.029-.949a3.067,3.067,0,0,0-.088-.552.96.96,0,0,0,.25.074c.107.02.218.034.331.044s.221.015.324.015A.788.788,0,0,0,333.5,368.229Zm1.5-4.091v-1.59h-1.987v1.59Zm0,2.428v-1.56h-1.987v1.56Zm1,3.371c-.049-.138-.1-.267-.147-.39s-.1-.238-.147-.346l.721-.265q.206.486.353.949a8.985,8.985,0,0,1,.236.891l-.721.236-.089-.4-1.354.4a4.117,4.117,0,0,0-.515.169q-.192.081-.353.169a2.056,2.056,0,0,0-.2-.449,2.953,2.953,0,0,0-.3-.434l.339-.074.294-.736q.147-.367.258-.7t.177-.6a3.067,3.067,0,0,0,.081-.412,3.125,3.125,0,0,0,.913.368q.176.03.191.1c.01.049-.049.1-.177.162a.535.535,0,0,0-.177.162,3.085,3.085,0,0,0-.25.456,5.647,5.647,0,0,1-.272.508q-.154.257-.317.537Z" transform="translate(-308.025 -360.002)" fill="#231815"/>
      <path id="Path_69" data-name="Path 69" d="M366.733,360.665l.537.574q.3.323.6.67t.552.669q.257.324.419.56l-.795.854q-.176-.294-.339-.545t-.338-.485q-.176-.236-.383-.463t-.471-.479a12.138,12.138,0,0,1-.566,1.133,12.7,12.7,0,0,1-.7,1.119h1.221q.471,0,.89-.029a4.157,4.157,0,0,0,.714-.1v1.089a2.728,2.728,0,0,0-.515-.073q-.28-.015-.662-.015v1.5q.367,0,.795-.037a6.61,6.61,0,0,0,.721-.1v1.163q-.294-.045-.7-.074t-.817-.029v3.459q.412-.118.839-.236t.868-.28a3.339,3.339,0,0,0-.1,1.06q-1.207.339-2.3.67t-1.847.581a5.489,5.489,0,0,0-.243-.6q-.125-.257-.331-.6.4-.029.95-.118t1.214-.25v-3.694q-.353,0-.611.007l-.457.015c-.132,0-.255.015-.368.029s-.223.032-.331.052v-1.163a5.323,5.323,0,0,0,.758.1q.419.029,1.008.029v-1.5q-.339,0-.581.022a3.788,3.788,0,0,0-.449.066v-.5q-.1.118-.191.235c-.059.079-.118.152-.177.221a2.789,2.789,0,0,0-.449-.42,2.454,2.454,0,0,0-.493-.258,8.346,8.346,0,0,0,1.449-1.8,9.077,9.077,0,0,0,.891-2.046Zm-1.957,9.979a5.2,5.2,0,0,0-.677-1.9l.942-.412q.1.236.192.441c.059.138.115.282.169.435s.108.314.162.485.115.371.184.6Zm3.841-2q-.176.457-.368.9t-.4.876l-.795-.25a6.114,6.114,0,0,0,.419-.949,5.49,5.49,0,0,0,.243-1.008Zm1.4,3.3a7.084,7.084,0,0,1-.537.839,9.824,9.824,0,0,1-.64.765,2.435,2.435,0,0,0-.4-.441,1.791,1.791,0,0,0-.515-.309,4.254,4.254,0,0,0,1.464-1.656,7.7,7.7,0,0,0,.773-2.362h-.368a2.69,2.69,0,0,0-.522.037,1.514,1.514,0,0,0-.4.169,3.408,3.408,0,0,0-.309-1.192.858.858,0,0,0,.376-.221,1.716,1.716,0,0,0,.287-.486l.6-1.6q-.427,0-.751.015a3.78,3.78,0,0,0-.6.073v-1.177a8.5,8.5,0,0,0,1.28.088q.471,0,.854-.022a5.619,5.619,0,0,0,.633-.066l-1.324,3.429h.6q.191,0,.412-.015a3.979,3.979,0,0,0,.4-.044q-.236,1.06-.449,1.854a14.706,14.706,0,0,1-.449,1.413,4.514,4.514,0,0,0,1.038.7,4.463,4.463,0,0,0,1.273.368,11.086,11.086,0,0,0,1.773.1q1.038-.015,2.539-.147a2.876,2.876,0,0,0-.338.655,2.662,2.662,0,0,0-.1.713q-1.428,0-2.443-.066a10.884,10.884,0,0,1-1.766-.243,6.019,6.019,0,0,1-1.31-.456A5.647,5.647,0,0,1,370.015,371.939Zm-.118-8.095q-.059-.265-.147-.574t-.2-.626q-.111-.316-.236-.625t-.243-.559l.986-.368q.221.544.456,1.207t.383,1.192Zm4.592-1.928q.677,0,1.251-.03t1-.073v1.074q-.427-.029-.964-.051t-1.288-.022v.942h.721q.294,0,.515-.007c.147,0,.28-.012.4-.022l.353-.03c0,.1,0,.238-.015.42s-.015.356-.015.522v3.488a2.393,2.393,0,0,0,.029.412q-.176,0-.353-.007c-.118,0-.25-.007-.4-.007h-1.237v.912q.691,0,1.339-.029t1.118-.074v1.133q-.471-.044-1.045-.066t-1.413-.022q0,.383.007.809t.037.824h-1.075q.029-.411.052-.831t.022-.8q-.4,0-.714.007l-.581.015q-.265.008-.493.03c-.152.015-.307.027-.464.037v-1.133c.157.02.336.035.537.044l.611.029q.309.015.6.022c.192.005.36.007.508.007v-.912h-1.317q-.2,0-.346.007c-.1,0-.211.007-.339.007.02-.1.039-.233.059-.4a4.619,4.619,0,0,0,.029-.522v-2.973a5.1,5.1,0,0,0-.029-.53,3.372,3.372,0,0,0-.059-.4c.127.01.25.017.368.022l.4.015c.147,0,.319.007.515.007h.721v-.942q-.751,0-1.273.015t-.949.059v-1.074q.442.044,1.023.073t1.2.03q0-.191-.007-.412c0-.147-.012-.287-.022-.42s-.02-.255-.03-.368-.02-.2-.029-.258a2.95,2.95,0,0,0,.545.088q.25.015.515.015c.138,0,.214.029.228.088s-.047.138-.184.236c-.02.01-.035.044-.044.1a3.414,3.414,0,0,0-.015.412Zm-.957,2.752h-.986v1.075h.986Zm0,1.928h-.986v1.015h.986Zm.957-.854h.986v-1.075h-.986Zm0,1.869h.986V366.6h-.986Z" transform="translate(-331.646 -360.238)" fill="#231815"/>
      <path id="Path_70" data-name="Path 70" d="M411.3,361.457q1.207,0,2.09-.007l1.5-.015q.618-.007.986-.029c.245-.015.432-.032.56-.052V362.5q-.206-.015-.581-.037t-.876-.037q-.5-.014-1.1-.022t-1.266-.007h-6.77q.029,1.752.037,3.069t-.03,2.318q-.037,1-.125,1.759a13.973,13.973,0,0,1-.228,1.391,9.088,9.088,0,0,1-.353,1.206q-.214.574-.493,1.222a3.024,3.024,0,0,0-.5-.522,2.909,2.909,0,0,0-.544-.331,5.146,5.146,0,0,0,.7-1.406,8.039,8.039,0,0,0,.36-2.082q.1-1.457.1-3.3t-.118-4.364c.138.02.334.037.589.052s.6.024,1.023.029l1.567.015q.927.008,2.208.007a3.768,3.768,0,0,0-.2-.4q-.111-.191-.3-.471l1.339-.383q.147.4.243.67T411.3,361.457Zm-3.959,4.651q-.236.339-.434.6l-.419.559a4.464,4.464,0,0,0-.236-.463,3.642,3.642,0,0,0-.309-.435,13.188,13.188,0,0,0,1.347-1.935,10.651,10.651,0,0,0,.817-1.818q.294.162.559.28t.574.236c.078.02.118.059.118.118a.2.2,0,0,1-.118.162.934.934,0,0,0-.125.088,1.045,1.045,0,0,0-.118.125c-.044.055-.1.128-.162.221s-.145.218-.243.376l-.14.221c-.044.069-.091.138-.14.206V369.9h-1.075q.03-.279.052-.478c.015-.132.024-.26.029-.382s.01-.255.015-.4.007-.317.007-.522Zm.765,4.651q-.162.427-.3.773t-.272.633q-.132.287-.265.537t-.265.486l-.971-.5q.22-.353.382-.647t.294-.567q.132-.272.236-.552c.068-.186.133-.388.191-.6Zm1.663-4.651q-.206.28-.368.486a4.138,4.138,0,0,1-.324.368q-.162-.206-.324-.39a3.341,3.341,0,0,0-.353-.346,4.9,4.9,0,0,0,.6-.67,9.1,9.1,0,0,0,.6-.89,9.548,9.548,0,0,0,.522-1.023,7.98,7.98,0,0,0,.383-1.067c.177.088.35.172.522.25s.355.157.552.236q.265.088,0,.25a1.2,1.2,0,0,0-.169.177,4.51,4.51,0,0,0-.272.4h1.472a3.532,3.532,0,0,0-.155-.4q-.1-.214-.272-.522l1.148-.368a7.08,7.08,0,0,1,.257.706q.081.28.155.589.456,0,.795-.008c.226,0,.429-.012.611-.022s.35-.024.508-.044l.485-.059.015.986q-.544-.059-1.1-.074t-1.339-.015v.707q.677,0,1.288-.029t.979-.074v.957c-.127-.009-.284-.02-.471-.029s-.383-.017-.589-.022l-.625-.015q-.317-.007-.581-.007v.854q.691,0,1.31-.037t1-.1v.986l-.5-.037q-.295-.022-.618-.037t-.64-.022c-.211,0-.4-.008-.552-.008v.927q.53,0,.92-.007t.692-.029q.3-.022.537-.052t.441-.074v1.06c-.167-.02-.329-.037-.486-.052s-.339-.027-.544-.037-.456-.017-.751-.022-.658-.008-1.089-.008h-2.752v.427h-1.016q.059-.485.081-.9t.022-.913Zm4.886,5.711a4.1,4.1,0,0,1-.353.692,2.085,2.085,0,0,1-.376.434,1.266,1.266,0,0,1-.419.243,1.918,1.918,0,0,1-.5.088q-.309.029-.78.029t-.957-.007q-.485-.007-.89-.029c-.27-.015-.463-.032-.581-.052a1.217,1.217,0,0,1-.765-.383,1.483,1.483,0,0,1-.191-.853v-.441c0-.206-.01-.444-.029-.714a3.988,3.988,0,0,0-.088-.64,5.36,5.36,0,0,0,.662.1,2.741,2.741,0,0,0,.574,0q.4-.044.118.206a.4.4,0,0,0-.147.169.69.69,0,0,0-.029.228v.824a.6.6,0,0,0,.11.412.692.692,0,0,0,.4.162q.1.015.4.022t.662.007q.361,0,.714-.007t.589-.037a.661.661,0,0,0,.478-.272,2.021,2.021,0,0,0,.272-.89,1.216,1.216,0,0,0,.478.493A1.756,1.756,0,0,0,414.656,371.818ZM410.7,364.65c0,.01,0,.015-.007.015s-.007,0-.007.015v.677h2.031v-.707Zm-.015,2.34h2.031v-.854h-2.031Zm0,1.678h2.031v-.927h-2.031Zm1.53,3.208a6.933,6.933,0,0,0-.669-.691,7.026,7.026,0,0,0-.788-.6l.618-.677a7.758,7.758,0,0,1,.817.523,7.5,7.5,0,0,1,.7.6Zm3.783.942q-.251-.309-.464-.552t-.441-.471q-.228-.228-.493-.463t-.618-.515l.647-.75q.647.456,1.17.9a13.787,13.787,0,0,1,1.082,1.03Z" transform="translate(-355.374 -360.088)" fill="#231815"/>
      <path id="Path_71" data-name="Path 71" d="M452.372,371.062q0,.692.022,1.273t.081,1.243h-1.413q.059-.677.081-1.265t.022-1.251v-1.074h-2.914a11.3,11.3,0,0,1-1.575,4.739,4.826,4.826,0,0,0-.6-.449,4.07,4.07,0,0,0-.7-.331,6.37,6.37,0,0,0,1.273-2.392,12.019,12.019,0,0,0,.434-3.451v-3.782q0-.692-.03-1.229a7.259,7.259,0,0,0-.088-.861q.574.03,1.134.052t1.162.029l1.273.015q.67.008,1.45.008,1,0,1.729-.008t1.3-.015q.566-.007,1.038-.029t.986-.052a7.526,7.526,0,0,0-.1.854q-.037.545-.037,1.237v8.786a3.742,3.742,0,0,1-.044.64.6.6,0,0,1-.28.4,2.181,2.181,0,0,1-.714.258q-.478.1-1.346.236-.088-.4-.192-.714a6.478,6.478,0,0,0-.28-.7,7.022,7.022,0,0,0,.832-.015,1.739,1.739,0,0,0,.493-.1.458.458,0,0,0,.243-.2.671.671,0,0,0,.066-.317v-2.6h-3.312Zm-1.207-5.475v-2.163H448.3v2.163Zm-2.87,1.075v2.252h2.87v-2.252Zm7.388-1.075v-2.163h-3.312v2.163Zm-3.312,1.075v2.252h3.312v-2.252Z" transform="translate(-380.153 -361.289)" fill="#231815"/>
      <path id="Path_72" data-name="Path 72" d="M488.407,363.953a30.481,30.481,0,0,1-.309,3.282,11.478,11.478,0,0,1-.684,2.539A9.231,9.231,0,0,1,486.2,371.9a16.689,16.689,0,0,1-1.884,2.046q-.236-.207-.574-.456t-.706-.471a9.309,9.309,0,0,0,1.8-1.6,8.368,8.368,0,0,0,1.251-1.965,10.807,10.807,0,0,0,.765-2.45,19.629,19.629,0,0,0,.323-3.054q-.662.015-1.265.037t-1.119.066v-1.339l.979.051q.434.023.905.037t1.081.015h1.538q1.413,0,2.289-.007t1.405-.015q.53-.007.81-.03t.53-.066l-2,4.165h1.325q.456,0,.809-.022a3.928,3.928,0,0,0,.559-.066q-.368,1.046-.7,1.847a13.953,13.953,0,0,1-.677,1.428,8.148,8.148,0,0,1-.736,1.118,7.82,7.82,0,0,1-.876.935,6.86,6.86,0,0,0,1.023.493,11.913,11.913,0,0,0,1.192.4,11.383,11.383,0,0,0,1.185.265,6.13,6.13,0,0,0,1,.1,2.594,2.594,0,0,0-.427.721,5.612,5.612,0,0,0-.25.883,8.6,8.6,0,0,1-1.119-.287q-.618-.2-1.259-.471t-1.251-.6a7.778,7.778,0,0,1-1.082-.7,14.276,14.276,0,0,1-2.34,1.369,13.258,13.258,0,0,1-2.443.868,5.4,5.4,0,0,0-.287-.669,2.577,2.577,0,0,0-.419-.6,21.5,21.5,0,0,0,2.553-.706,8.581,8.581,0,0,0,2.112-1.06,8.535,8.535,0,0,1-1.281-2.038,12.687,12.687,0,0,1-.809-2.45l1.119-.457a11.274,11.274,0,0,0,.721,2.377,6.5,6.5,0,0,0,1.162,1.832,7.116,7.116,0,0,0,1.244-1.531,7.906,7.906,0,0,0,.787-1.81H492.1q-.5,0-.913.015t-.795.059l1.9-4.15Z" transform="translate(-402.486 -361.568)" fill="#231815"/>
      <path id="Path_73" data-name="Path 73" d="M525.881,363.775a5.527,5.527,0,0,0,1.162-1.575h-2.016q-.353,0-.611.007l-.479.015c-.147.005-.285.012-.412.022l-.4.03v-1.03q.146.015.464.029t.7.022l.8.015c.28,0,.547.007.8.007s.508,0,.787-.007l.795-.015q.375-.007.692-.022t.493-.029a7.859,7.859,0,0,1-2,3.091h.809c.138,0,.258,0,.361-.015a2.886,2.886,0,0,0,.3-.044q-.118.854-.184,1.671t-.081,1.744l-.28-.037-.346-.044q-.184-.022-.354-.029c-.113,0-.208-.008-.287-.008h-1.781l-.177,1.369h1.663q.662,0,.971-.015a3.532,3.532,0,0,0,.53-.059q-.059.295-.1.677t-.088,1.016a11.461,11.461,0,0,1-.169,1.42,1.785,1.785,0,0,1-.4.868,1.632,1.632,0,0,1-.817.456,7.817,7.817,0,0,1-1.428.2,2.529,2.529,0,0,0-.1-.765,2.479,2.479,0,0,0-.316-.618,4.221,4.221,0,0,0,1.206.118,1.058,1.058,0,0,0,.589-.191.478.478,0,0,0,.125-.162,1.408,1.408,0,0,0,.1-.339q.044-.235.081-.632t.081-1.045H524.7q-.56,0-.817.007t-.493.037q.191-.883.316-1.752t.169-1.6a3.857,3.857,0,0,0,.574.1,7.451,7.451,0,0,0,.765.037h1.634l.118-1.486h-1.324a17.28,17.28,0,0,1-2.517,1.5,3.242,3.242,0,0,0-.354-.523,2.7,2.7,0,0,0-.53-.463,9.531,9.531,0,0,0,2.856-1.3,3.941,3.941,0,0,0-1.192-1.06l.9-.765q.338.324.582.6T525.881,363.775Zm5.578,7.2a3.885,3.885,0,0,0,.714-.839,4.608,4.608,0,0,0,.463-1.06H530.09q-.545,0-.972.022t-.75.052v-.986c.2.01.42.017.669.022l.773.015.788.015q.389.007.728.007.323,0,.714-.007l.787-.015.773-.015q.375-.007.669-.022-.264.677-.5,1.185t-.457.905a6.521,6.521,0,0,1-.449.706,5,5,0,0,1-.493.574,7.927,7.927,0,0,0,2.649.766,2.744,2.744,0,0,0-.809,1.251q-.839-.294-1.5-.6a8.128,8.128,0,0,1-1.221-.684A9.56,9.56,0,0,1,530.2,373a16.65,16.65,0,0,1-1.715.684,2.459,2.459,0,0,0-.279-.559,2.5,2.5,0,0,0-.53-.589,8.92,8.92,0,0,0,2.929-.942,8.429,8.429,0,0,1-.824-.854q-.4-.471-.824-1.089l.721-.486q.441.559.876,1.016A6.4,6.4,0,0,0,531.459,370.972Zm.206-8.124a3.779,3.779,0,0,0,.368.376c.128.113.26.223.4.331q.353-.294.6-.5t.419-.383c.118-.118.221-.228.309-.331s.181-.218.28-.346q.294.28.5.456a5.014,5.014,0,0,0,.4.309q.191.132.14.228t-.258.066a.315.315,0,0,0-.162.015,1.135,1.135,0,0,0-.25.14q-.162.11-.427.324t-.692.566a7.572,7.572,0,0,0,2.826.78,2.825,2.825,0,0,0-.449.559,3.4,3.4,0,0,0-.287.692A20.369,20.369,0,0,1,532.916,365v1.162a.94.94,0,0,0,.051.346.325.325,0,0,0,.258.169,2.05,2.05,0,0,0,.611,0q.4-.044,1.111-.162a2.325,2.325,0,0,0-.228.567,4.107,4.107,0,0,0-.1.64q-.957.03-1.509.007a2.967,2.967,0,0,1-.839-.125.546.546,0,0,1-.36-.3,1.583,1.583,0,0,1-.074-.537v-1.589h-1.486a4.026,4.026,0,0,1-.3,1.619,3.733,3.733,0,0,1-1.082,1.34,1.8,1.8,0,0,0-.42-.353,2.726,2.726,0,0,0-.552-.265,3.3,3.3,0,0,0,.707-.515,1.784,1.784,0,0,0,.4-.625,2.62,2.62,0,0,0,.155-.868,11.679,11.679,0,0,0-.044-1.244,3.546,3.546,0,0,0,.567.059q.361.015,1.111.015h1a8.243,8.243,0,0,1-1.391-1.325,14.78,14.78,0,0,1-1.288-1.855l1.045-.456q.176.383.368.736a6.283,6.283,0,0,0,.412.662l.53-.456q.221-.192.39-.354a4.342,4.342,0,0,0,.3-.316q.133-.154.265-.331a6.04,6.04,0,0,0,1,.721c.1.049.137.108.117.177s-.1.1-.236.1a.627.627,0,0,0-.169.022.963.963,0,0,0-.25.14q-.17.118-.479.361T531.664,362.847Z" transform="translate(-425.742 -360.345)" fill="#231815"/>
      <path id="Path_74" data-name="Path 74" d="M572.6,371.794a7.787,7.787,0,0,0,1.692.625,9.5,9.5,0,0,0,1.722.243,2.075,2.075,0,0,0-.456.692,2.71,2.71,0,0,0-.162.751,13.134,13.134,0,0,1-2.237-.67,6.6,6.6,0,0,1-1.626-.942,5.34,5.34,0,0,1-1.155-1.288,9.065,9.065,0,0,1-.839-1.722H568.07v3.238q.383-.206.832-.478t1.023-.655a3.042,3.042,0,0,0,.051.6,3.577,3.577,0,0,0,.169.567q-.618.323-1.074.574t-.824.471q-.368.221-.669.435t-.626.478a5.5,5.5,0,0,0-.4-.64,2.617,2.617,0,0,0-.471-.522c.157-.049.309-.1.456-.147s.289-.1.427-.147v-3.768h-1.722q-.044.677-.14,1.266t-.242,1.14a10.346,10.346,0,0,1-.36,1.1q-.214.544-.508,1.163a2.9,2.9,0,0,0-.552-.479,2.675,2.675,0,0,0-.684-.331q.4-.618.648-1.1a5.018,5.018,0,0,0,.39-1.008,7.469,7.469,0,0,0,.206-1.155q.066-.633.111-1.531.015-.412.015-1.133t-.015-1.648q-.015-.927-.044-2t-.073-2.178q.427.045.876.066t1.045.044q.6.022,1.413.029t1.995.007q1.162,0,2.016-.007t1.479-.029q.626-.023,1.067-.044t.809-.066a7.272,7.272,0,0,0-.1,1.59q0,.441.022.9t.081.905q-.118-.015-.279-.022c-.108,0-.253-.01-.434-.015s-.412-.008-.692-.008H572.25v1.251q.691-.015,1.332-.044t1.038-.074v1.163q-.427-.059-1.03-.088t-1.339-.029v1.457a30.951,30.951,0,0,0,3.458-.147v1.221q-.206-.029-.6-.059t-1.016-.051q-.625-.023-1.494-.037t-2.031-.015a7.2,7.2,0,0,0,.522.994,3.8,3.8,0,0,0,.7.846q.56-.515.979-.986a3.536,3.536,0,0,0,.537-.721,2.986,2.986,0,0,0,.243.177q.154.1.324.206c.112.069.223.13.331.184a2.083,2.083,0,0,0,.25.11c.118.04.174.094.169.162s-.076.1-.213.1a1.8,1.8,0,0,0-.574.273A9.123,9.123,0,0,0,572.6,371.794Zm-4.74-4.665q-.485.015-.89.044l-.787.059v-1.163q.368.045.78.066t.9.037v-1.237h-2.546q0,.618.007,1.126t0,.942q-.007.435-.015.817t-.022.75h2.575Zm5.519-4.43h-8.065v1.3h8.065Zm-2.252,3.488v-1.251h-2.149v1.251Zm-2.149.927v1.457h2.149v-1.457Z" transform="translate(-449.771 -360.903)" fill="#231815"/>
      <path id="Path_75" data-name="Path 75" d="M603.6,368.219q-.221.353-.449.692t-.449.648a5,5,0,0,0-.25-.662,3.923,3.923,0,0,0-.339-.574,5.88,5.88,0,0,0,1.5-1.958,9.865,9.865,0,0,0,.824-2.884q-.648.015-1,.044t-.692.088v-1.221a9.586,9.586,0,0,0,.978.081q.566.022,1.347.022t1.339-.022a9.578,9.578,0,0,0,.971-.081v1.221q-.162-.029-.331-.051c-.113-.015-.238-.027-.375-.037s-.294-.02-.471-.03-.382-.015-.618-.015a9.9,9.9,0,0,1-.316,1.376,11.965,11.965,0,0,1-.493,1.3h1.273c.319,0,.569,0,.751-.007s.314-.012.4-.022.154-.019.213-.029a2.211,2.211,0,0,0-.066.287,2.845,2.845,0,0,0-.03.346c-.005.138-.01.314-.015.53s-.007.5-.007.839v3.12q0,.574.044,1.634H606.2v-1.074h-1.545v2.178h-1.207q.074-.5.111-1.038t.037-1.185Zm2.6-1.045h-1.545v3.591H606.2Zm7.506.25q.736-.015,1.184-.044t.832-.088v1.3q-.383-.059-.839-.088t-1.177-.044v3.061q0,.706.029,1.589t.1,1.751H612.4q.074-.869.118-1.751t.044-1.589v-3.061h-1.972a14.137,14.137,0,0,1-.177,1.972,7.414,7.414,0,0,1-.456,1.612,6.417,6.417,0,0,1-.817,1.413,9.875,9.875,0,0,1-1.258,1.347,3.971,3.971,0,0,0-1.148-.9A6.271,6.271,0,0,0,608,372.87a4.661,4.661,0,0,0,.8-1.192,6.008,6.008,0,0,0,.449-1.435,13.011,13.011,0,0,0,.191-1.788q-.6.015-.979.044t-.729.088v-1.3q.353.059.751.088t1,.044q.029-.912.037-1.862t-.007-2.068q-.545.015-.854.037a4.438,4.438,0,0,0-.589.081v-1.236q.368.044,1.236.074t2.3.029q1.413,0,2.274-.022a10.993,10.993,0,0,0,1.244-.081v1.236a2.887,2.887,0,0,0-.515-.081q-.295-.022-.9-.037Zm-1.148,0v-3.93h-1.9q-.015,1.06-.022,2.017t-.037,1.913Z" transform="translate(-473.112 -361.375)" fill="#231815"/>
      <path id="Path_76" data-name="Path 76" d="M648.538,363.552c.089.029.132.078.132.147s-.044.113-.132.133a1.08,1.08,0,0,0-.118.037.528.528,0,0,0-.14.089c-.054.044-.12.1-.2.169s-.177.162-.294.28q-.295.294-.692.633t-.868.684q-.472.346-1,.677t-1.089.611a2.687,2.687,0,0,0-.412-.589,1.532,1.532,0,0,0-.559-.412,12.578,12.578,0,0,0,1.405-.537,7.246,7.246,0,0,0,1.141-.647,6.222,6.222,0,0,0,.942-.81,7.605,7.605,0,0,0,.809-1.023,3.422,3.422,0,0,0,.522.331A3.565,3.565,0,0,0,648.538,363.552Zm.309,5.019a7.434,7.434,0,0,1-.508,1.648,4.546,4.546,0,0,1-.9,1.318,6.114,6.114,0,0,1-1.391,1.045,9.9,9.9,0,0,1-2,.817,3.053,3.053,0,0,0-.824-1.162,10.3,10.3,0,0,0,1.861-.486,4.647,4.647,0,0,0,1.3-.728,3.259,3.259,0,0,0,.839-1.03,5.306,5.306,0,0,0,.471-1.42q-.794,0-1.361.007l-.986.015q-.419.007-.721.029c-.2.015-.39.032-.567.051v-1.251c.177.02.373.037.589.051s.471.025.765.03l1.03.015q.588.007,1.383.007a9.426,9.426,0,0,0,.052-1.089q-.007-.515-.037-.942.339.044.78.066t.721.007c.137-.01.211.025.221.1s-.05.172-.177.28a.317.317,0,0,0-.058.1,1.673,1.673,0,0,0-.074.228q-.045.162-.1.463t-.133.787h1.325q.53,0,.92-.015t.684-.037q.294-.022.633-.051-.073.324-.118.677t-.088.824q-.044.471-.081,1.1t-.081,1.479q-.014.383.125.493a1.18,1.18,0,0,0,.64.11,2.564,2.564,0,0,0,.6-.059.713.713,0,0,0,.39-.25,1.487,1.487,0,0,0,.25-.537,8.5,8.5,0,0,0,.184-.92,1.874,1.874,0,0,0,.589.589,3.05,3.05,0,0,0,.751.353,7.526,7.526,0,0,1-.4,1.031,1.47,1.47,0,0,1-.508.589,1.93,1.93,0,0,1-.839.265,12.885,12.885,0,0,1-1.376.059,2.386,2.386,0,0,1-1.236-.221.841.841,0,0,1-.338-.721,15.753,15.753,0,0,1,.029-1.634q.059-.956.177-2.075Zm-4.062-5.755v1.678H643.5v-2.84q.367.044.809.081t1.06.051q.618.015,1.457.022t2.017.007q-.074-.412-.191-.853a7.486,7.486,0,0,0-.25-.78l1.354-.265q.088.442.221.935t.295.964q1.016,0,1.766-.007t1.31-.029q.559-.022.971-.052c.274-.02.525-.044.751-.073V364.3h-1.281v-1.487h-2.34v2.1a.3.3,0,0,0,.17.3,2.3,2.3,0,0,0,.787.081q.235,0,.53-.022t.581-.059c.192-.024.37-.051.537-.081a2.081,2.081,0,0,0,.4-.1,1.885,1.885,0,0,0-.044.272c-.01.1-.02.211-.029.324s-.015.221-.015.324a1.808,1.808,0,0,0,.015.257,6.721,6.721,0,0,1-1.126.133q-.655.03-1.538.03a1.636,1.636,0,0,1-1.059-.25.976.976,0,0,1-.279-.766v-2.546Z" transform="translate(-497.463 -359.916)" fill="#231815"/>
      <path id="Path_77" data-name="Path 77" d="M684.2,368.93q-.059.691-.154,1.273a10.611,10.611,0,0,1-.243,1.112q-.147.53-.339,1.022a10.607,10.607,0,0,1-.456,1.008,4.934,4.934,0,0,0-.522-.552,3.806,3.806,0,0,0-.581-.4,5.867,5.867,0,0,0,.463-.647,3.529,3.529,0,0,0,.331-.714,6.1,6.1,0,0,0,.221-.883q.088-.493.147-1.163t.1-1.545q.037-.875.066-2.053.015-.677.015-1.206t-.015-.972q-.015-.441-.059-.832t-.1-.773q.56-.044,1.148-.147a11.645,11.645,0,0,0,1.14-.257q.552-.155,1.052-.346a5.318,5.318,0,0,0,.883-.427q.192.294.412.574a3.733,3.733,0,0,0,.4.441c.108.1.152.165.132.2s-.1.037-.235.007a1.1,1.1,0,0,0-.3-.022,4.354,4.354,0,0,0-.574.081q-.391.074-1.053.228l-1.737.4v1.9h1.6q.706,0,1.163-.015t.736-.044q-.015.4-.022,1.008t-.007,1.28q0,.67.007,1.34t.022,1.17q-.192-.015-.375-.022l-.4-.015q-.214-.007-.486-.007H684.2Zm.133-3.709q0,.766-.015,1.428t-.044,1.236H686.7v-2.664Zm8.831-.132q.78,0,1.243-.029t.935-.1v1.31q-.412-.059-.795-.088t-.957-.044v5.239q0,.662.015,1.185t.074,1.156h-1.4q.044-.633.066-1.156t.022-1.185v-5.239H690q-.015,1.5-.132,2.554a8.994,8.994,0,0,1-.4,1.877,6.382,6.382,0,0,1-.758,1.531,14.762,14.762,0,0,1-1.2,1.516,4.046,4.046,0,0,0-.574-.4,6.765,6.765,0,0,0-.648-.309,7.54,7.54,0,0,0,1.28-1.162,4.432,4.432,0,0,0,.787-1.391,8.36,8.36,0,0,0,.4-1.921q.117-1.118.132-2.752.015-1.384-.007-2.428a15.8,15.8,0,0,0-.1-1.6,13.087,13.087,0,0,0,1.354-.044q.736-.059,1.479-.191t1.428-.323a7.691,7.691,0,0,0,1.214-.442q.073.147.177.324l.206.353q.1.176.2.324t.154.236c.078.108.1.179.074.213s-.093.042-.191.022a3.487,3.487,0,0,0-.486-.059,5.908,5.908,0,0,0-.773.029q-.508.044-1.369.162t-2.259.339v2.5Z" transform="translate(-520.44 -360.217)" fill="#231815"/>
    </g>
    <g id="Group_30" data-name="Group 30" transform="translate(286.38 198.959)">
      <path id="Path_78" data-name="Path 78" d="M288.29,332.87V327.2h2.51a1.429,1.429,0,0,1,1.58,1.426,1.216,1.216,0,0,1-.744,1.178,1.426,1.426,0,0,1,1.054,1.395q-.125,1.612-1.953,1.673Zm.775-5.051v1.766h1.364q1.177.032,1.178-.93,0-.805-1.178-.837Zm0,2.417v1.983h1.643q1.146-.03,1.209-1.022,0-.96-1.364-.961Z" transform="translate(-288.29 -327.198)" fill="#c39569"/>
      <path id="Path_79" data-name="Path 79" d="M301.8,327.2v5.672h-.713V327.2Z" transform="translate(-295.88 -327.198)" fill="#c39569"/>
      <path id="Path_80" data-name="Path 80" d="M304.742,332.826q.124-2.107,1.922-2.2,1.766.093,1.921,2.2-.155,2.076-1.921,2.138Q304.866,334.9,304.742,332.826Zm.713,0q.062,1.55,1.209,1.58,1.116-.03,1.209-1.58-.093-1.518-1.209-1.581Q305.517,331.308,305.455,332.826Z" transform="translate(-298.048 -329.231)" fill="#c39569"/>
      <path id="Path_81" data-name="Path 81" d="M319.015,332.175h-.682a.926.926,0,0,0-.961-.9q-1.116.063-1.178,1.55,0,1.612,1.147,1.612.806-.031.992-.992h.682a1.624,1.624,0,0,1-1.674,1.519q-1.8-.062-1.859-2.014.031-2.262,1.984-2.324Q318.829,330.657,319.015,332.175Z" transform="translate(-304.418 -329.231)" fill="#c39569"/>
      <path id="Path_82" data-name="Path 82" d="M327.684,330.266l1.673,2.6h-.9l-1.3-2.107-.558.558v1.549h-.682V327.2h.682v3.285l1.8-1.766h.867Z" transform="translate(-310.607 -327.198)" fill="#c39569"/>
      <path id="Path_83" data-name="Path 83" d="M338.514,332.175h-.682a.926.926,0,0,0-.961-.9q-1.116.063-1.178,1.55,0,1.612,1.147,1.612.806-.031.992-.992h.682a1.624,1.624,0,0,1-1.673,1.519q-1.8-.062-1.859-2.014.031-2.262,1.984-2.324Q338.328,330.657,338.514,332.175Z" transform="translate(-315.983 -329.231)" fill="#c39569"/>
      <path id="Path_84" data-name="Path 84" d="M348.718,330.049v2.82h-.682v-2.7q.031-.961-.837-.93-1.147.063-1.147,1.364v2.262h-.713V327.2h.713v2.076h.031a1.409,1.409,0,0,1,1.209-.682A1.328,1.328,0,0,1,348.718,330.049Z" transform="translate(-322.127 -327.198)" fill="#c39569"/>
      <path id="Path_85" data-name="Path 85" d="M356.49,332.02h-.651q.031-1.363,1.7-1.394,1.488.093,1.519,1.178v2.386c0,.186.082.269.248.248h.093a.508.508,0,0,1,.155-.031v.5h-.186a.927.927,0,0,1-.217.031q-.744,0-.713-.589a2.063,2.063,0,0,1-1.519.62q-1.24-.062-1.3-1.147,0-1.116,1.271-1.3l1.147-.124q.372-.03.372-.5-.031-.651-.992-.682Q356.552,331.246,356.49,332.02Zm1.891,1.457V332.8a3.54,3.54,0,0,1-1.147.279q-.9.093-.868.651-.031.713.713.713Q358.257,334.376,358.381,333.477Z" transform="translate(-328.226 -329.231)" fill="#c39569"/>
      <path id="Path_86" data-name="Path 86" d="M367.761,327.973h-.713V327.2h.713Zm0,.744v4.153h-.713v-4.153Z" transform="translate(-335.003 -327.198)" fill="#c39569"/>
      <path id="Path_87" data-name="Path 87" d="M374.615,332.083v2.82h-.682v-2.541q.031-1.116-.9-1.085-1.085.093-1.085,1.364V334.9h-.713V330.75h.682v.589a1.538,1.538,0,0,1,1.271-.713A1.328,1.328,0,0,1,374.615,332.083Z" transform="translate(-337.487 -329.231)" fill="#c39569"/>
      <path id="Path_88" data-name="Path 88" d="M390.2,331.227h-2.293l-.589,1.643h-.775l2.139-5.672h.868l2.045,5.672h-.837Zm-2.045-.682h1.767l-.837-2.51h-.031Z" transform="translate(-346.568 -327.198)" fill="#c39569"/>
      <path id="Path_89" data-name="Path 89" d="M400.334,336.484V330.75h.651v.589h.031v-.031a1.409,1.409,0,0,1,1.209-.682q1.611.124,1.735,2.076-.093,2.2-1.828,2.262a1.329,1.329,0,0,1-1.084-.5h-.031v2.014Zm.651-3.44q.03,1.333,1.147,1.395,1.053-.031,1.116-1.612,0-1.518-1.147-1.55Q400.985,331.308,400.985,333.043Z" transform="translate(-354.745 -329.231)" fill="#c39569"/>
      <path id="Path_90" data-name="Path 90" d="M411.149,336.484V330.75h.651v.589h.031v-.031a1.409,1.409,0,0,1,1.209-.682q1.611.124,1.735,2.076-.093,2.2-1.829,2.262a1.33,1.33,0,0,1-1.085-.5h-.031v2.014Zm.651-3.44q.031,1.333,1.147,1.395,1.053-.031,1.116-1.612,0-1.518-1.147-1.55Q411.8,331.308,411.8,333.043Z" transform="translate(-361.16 -329.231)" fill="#c39569"/>
      <path id="Path_91" data-name="Path 91" d="M422.831,327.2v5.672h-.713V327.2Z" transform="translate(-367.666 -327.198)" fill="#c39569"/>
      <path id="Path_92" data-name="Path 92" d="M427.1,327.973h-.713V327.2h.713Zm0,.744v4.153h-.713v-4.153Z" transform="translate(-370.195 -327.198)" fill="#c39569"/>
      <path id="Path_93" data-name="Path 93" d="M433.5,332.175h-.682a.926.926,0,0,0-.961-.9q-1.116.063-1.178,1.55,0,1.612,1.147,1.612.806-.031.992-.992h.682a1.624,1.624,0,0,1-1.674,1.519q-1.8-.062-1.859-2.014.03-2.262,1.984-2.324Q433.31,330.657,433.5,332.175Z" transform="translate(-372.319 -329.231)" fill="#c39569"/>
      <path id="Path_94" data-name="Path 94" d="M440.656,332.02h-.651q.031-1.363,1.7-1.394,1.488.093,1.519,1.178v2.386c0,.186.082.269.248.248h.093a.509.509,0,0,1,.155-.031v.5h-.186a.927.927,0,0,1-.217.031q-.744,0-.713-.589a2.063,2.063,0,0,1-1.518.62q-1.24-.062-1.3-1.147,0-1.116,1.271-1.3l1.147-.124q.372-.03.372-.5-.031-.651-.992-.682Q440.718,331.246,440.656,332.02Zm1.891,1.457V332.8a3.539,3.539,0,0,1-1.147.279q-.9.093-.868.651-.031.713.713.713Q442.423,334.376,442.547,333.477Z" transform="translate(-378.147 -329.231)" fill="#c39569"/>
      <path id="Path_95" data-name="Path 95" d="M452.145,329.848h-.682v2.7q-.032.372.4.341h.279v.527h-.527q-.9,0-.868-.806v-2.758h-.527v-.589h.527v-1.147h.713v1.147h.682Z" transform="translate(-384.336 -327.74)" fill="#c39569"/>
      <path id="Path_96" data-name="Path 96" d="M457.335,327.973h-.713V327.2h.713Zm0,.744v4.153h-.713v-4.153Z" transform="translate(-388.13 -327.198)" fill="#c39569"/>
      <path id="Path_97" data-name="Path 97" d="M460.278,332.826q.123-2.107,1.921-2.2,1.767.093,1.922,2.2-.156,2.076-1.922,2.138Q460.4,334.9,460.278,332.826Zm.713,0q.062,1.55,1.208,1.58,1.116-.03,1.209-1.58-.093-1.518-1.209-1.581Q461.053,331.308,460.991,332.826Z" transform="translate(-390.299 -329.231)" fill="#c39569"/>
      <path id="Path_98" data-name="Path 98" d="M475.005,332.083v2.82h-.682v-2.541q.031-1.116-.9-1.085-1.085.093-1.085,1.364V334.9h-.713V330.75h.682v.589a1.538,1.538,0,0,1,1.271-.713A1.328,1.328,0,0,1,475.005,332.083Z" transform="translate(-397.03 -329.231)" fill="#c39569"/>
      <path id="Path_99" data-name="Path 99" d="M488.186,332.02h-.651q.031-1.363,1.7-1.394,1.488.093,1.519,1.178v2.386c0,.186.082.269.248.248h.093a.509.509,0,0,1,.155-.031v.5h-.186a.927.927,0,0,1-.217.031q-.744,0-.713-.589a2.063,2.063,0,0,1-1.518.62q-1.24-.062-1.3-1.147,0-1.116,1.271-1.3l1.147-.124q.372-.03.372-.5-.031-.651-.992-.682Q488.247,331.246,488.186,332.02Zm1.891,1.457V332.8a3.539,3.539,0,0,1-1.147.279q-.9.093-.868.651-.031.713.713.713Q489.952,334.376,490.076,333.477Z" transform="translate(-406.337 -329.231)" fill="#c39569"/>
      <path id="Path_100" data-name="Path 100" d="M502.045,332.083v2.82h-.682v-2.541q.03-1.116-.9-1.085-1.085.093-1.084,1.364V334.9h-.713V330.75h.682v.589a1.537,1.537,0,0,1,1.27-.713A1.328,1.328,0,0,1,502.045,332.083Z" transform="translate(-413.068 -329.231)" fill="#c39569"/>
      <path id="Path_101" data-name="Path 101" d="M512.607,327.2v5.672h-.651v-.558a1.271,1.271,0,0,1-1.178.62q-1.767-.062-1.828-2.262.093-1.952,1.735-2.076a1.427,1.427,0,0,1,1.147.651.368.368,0,0,1,.093.062V327.2Zm-2.944,3.6q.031,1.581,1.116,1.612,1.085-.093,1.147-1.395-.031-1.735-1.116-1.767Q509.631,329.275,509.663,330.793Z" transform="translate(-419.167 -327.198)" fill="#c39569"/>
      <path id="Path_102" data-name="Path 102" d="M526.012,332.87V327.2h2.324q2.262.125,2.386,2.758-.156,2.852-2.417,2.913Zm.775-5.051v4.4h1.488q1.611-.062,1.674-2.2-.063-2.138-1.736-2.2Z" transform="translate(-429.287 -327.198)" fill="#c39569"/>
      <path id="Path_103" data-name="Path 103" d="M542.3,333.6h.682a1.769,1.769,0,0,1-.744,1.147,2.265,2.265,0,0,1-1.116.217q-1.8-.062-1.86-2.014.062-2.262,1.984-2.324,1.735.062,1.8,2.448h-3.037q0,1.364,1.209,1.364A1.086,1.086,0,0,0,542.3,333.6Zm-2.294-1.085h2.325q-.124-1.239-1.177-1.24A1.207,1.207,0,0,0,540.008,332.516Z" transform="translate(-437.147 -329.231)" fill="#c39569"/>
      <path id="Path_104" data-name="Path 104" d="M551.362,334.34l1.178-3.409h.744l-1.549,4.153h-.744l-1.519-4.153h.806l1.054,3.409Z" transform="translate(-443.201 -329.412)" fill="#c39569"/>
      <path id="Path_105" data-name="Path 105" d="M562.867,333.6h.682a1.77,1.77,0,0,1-.744,1.147,2.263,2.263,0,0,1-1.116.217q-1.8-.062-1.86-2.014.062-2.262,1.984-2.324,1.735.062,1.8,2.448h-3.037q0,1.364,1.209,1.364A1.086,1.086,0,0,0,562.867,333.6Zm-2.294-1.085H562.9q-.124-1.239-1.178-1.24A1.206,1.206,0,0,0,560.574,332.516Z" transform="translate(-449.345 -329.231)" fill="#c39569"/>
      <path id="Path_106" data-name="Path 106" d="M571.892,327.2v5.672h-.713V327.2Z" transform="translate(-456.076 -327.198)" fill="#c39569"/>
      <path id="Path_107" data-name="Path 107" d="M574.835,332.826q.123-2.107,1.922-2.2,1.766.093,1.921,2.2-.156,2.076-1.921,2.138Q574.959,334.9,574.835,332.826Zm.713,0q.062,1.55,1.209,1.58,1.116-.03,1.208-1.58-.093-1.518-1.208-1.581Q575.61,331.308,575.548,332.826Z" transform="translate(-458.245 -329.231)" fill="#c39569"/>
      <path id="Path_108" data-name="Path 108" d="M586.108,336.484V330.75h.651v.589h.031v-.031a1.408,1.408,0,0,1,1.208-.682q1.611.124,1.736,2.076-.093,2.2-1.829,2.262a1.329,1.329,0,0,1-1.085-.5h-.031v2.014Zm.651-3.44q.03,1.333,1.147,1.395,1.053-.031,1.116-1.612,0-1.518-1.147-1.55Q586.758,331.308,586.759,333.043Z" transform="translate(-464.931 -329.231)" fill="#c39569"/>
      <path id="Path_109" data-name="Path 109" d="M597,334.9V330.75h.682v.589a1.443,1.443,0,0,1,1.271-.713,1.159,1.159,0,0,1,1.053.651.027.027,0,0,0,.031.031,1.564,1.564,0,0,1,1.27-.682,1.283,1.283,0,0,1,1.3,1.425V334.9H601.9v-2.665q0-.961-.775-.961a1.027,1.027,0,0,0-.961,1.116v2.51h-.713v-2.851q-.031-.743-.651-.775-1.085.093-1.085,1.364V334.9Z" transform="translate(-471.391 -329.231)" fill="#c39569"/>
      <path id="Path_110" data-name="Path 110" d="M615.728,333.6h.682a1.769,1.769,0,0,1-.744,1.147,2.263,2.263,0,0,1-1.116.217q-1.8-.062-1.859-2.014.062-2.262,1.983-2.324,1.736.062,1.8,2.448h-3.037q0,1.364,1.208,1.364A1.086,1.086,0,0,0,615.728,333.6Zm-2.293-1.085h2.324q-.124-1.239-1.177-1.24A1.206,1.206,0,0,0,613.435,332.516Z" transform="translate(-480.698 -329.231)" fill="#c39569"/>
      <path id="Path_111" data-name="Path 111" d="M627.341,332.083v2.82h-.682v-2.541q.031-1.116-.9-1.085-1.085.093-1.085,1.364V334.9h-.713V330.75h.682v.589a1.538,1.538,0,0,1,1.271-.713A1.328,1.328,0,0,1,627.341,332.083Z" transform="translate(-487.383 -329.231)" fill="#c39569"/>
      <path id="Path_112" data-name="Path 112" d="M635.787,329.848h-.682v2.7q-.032.372.4.341h.279v.527h-.527q-.9,0-.868-.806v-2.758h-.527v-.589h.527v-1.147h.713v1.147h.682Z" transform="translate(-493.257 -327.74)" fill="#c39569"/>
      <path id="Path_113" data-name="Path 113" d="M646.9,327.2v5.672h-.775V327.2Z" transform="translate(-500.53 -327.198)" fill="#c39569"/>
      <path id="Path_114" data-name="Path 114" d="M654.382,332.083v2.82H653.7v-2.541q.031-1.116-.9-1.085-1.085.093-1.085,1.364V334.9H651V330.75h.682v.589a1.538,1.538,0,0,1,1.271-.713A1.328,1.328,0,0,1,654.382,332.083Z" transform="translate(-503.421 -329.231)" fill="#c39569"/>
      <path id="Path_115" data-name="Path 115" d="M664.5,331.959h-.682q0-.681-.992-.713-.806.062-.806.589-.093.435.744.558l.713.155q1.177.279,1.147,1.116-.093,1.24-1.612,1.3-1.8,0-1.8-1.394h.651q.062.868,1.147.868.867-.031.93-.682.031-.372-.806-.589l-.837-.186q-.992-.217-.961-.992.062-1.27,1.58-1.363Q664.372,330.657,664.5,331.959Z" transform="translate(-509.475 -329.231)" fill="#c39569"/>
      <path id="Path_116" data-name="Path 116" d="M672.576,329.848h-.682v2.7q-.032.372.4.341h.279v.527h-.527q-.9,0-.867-.806v-2.758h-.527v-.589h.527v-1.147h.713v1.147h.682Z" transform="translate(-515.077 -327.74)" fill="#c39569"/>
      <path id="Path_117" data-name="Path 117" d="M677.766,327.973h-.713V327.2h.713Zm0,.744v4.153h-.713v-4.153Z" transform="translate(-518.872 -327.198)" fill="#c39569"/>
      <path id="Path_118" data-name="Path 118" d="M682.249,329.848h-.682v2.7q-.032.372.4.341h.279v.527h-.526q-.9,0-.868-.806v-2.758h-.527v-.589h.527v-1.147h.713v1.147h.682Z" transform="translate(-520.814 -327.74)" fill="#c39569"/>
      <path id="Path_119" data-name="Path 119" d="M690.073,335.084h-.651v-.589l-.031-.031a1.391,1.391,0,0,1-1.333.682q-1.333-.062-1.333-1.239v-2.975h.713v2.758q0,.93.806.93,1.053-.031,1.147-1.395v-2.293h.682Z" transform="translate(-524.609 -329.412)" fill="#c39569"/>
      <path id="Path_120" data-name="Path 120" d="M698.474,329.848h-.682v2.7q-.031.372.4.341h.279v.527h-.527q-.9,0-.868-.806v-2.758h-.527v-.589h.527v-1.147h.713v1.147h.682Z" transform="translate(-530.437 -327.74)" fill="#c39569"/>
      <path id="Path_121" data-name="Path 121" d="M705.454,333.6h.682a1.771,1.771,0,0,1-.744,1.147,2.266,2.266,0,0,1-1.116.217q-1.8-.062-1.86-2.014.062-2.262,1.984-2.324,1.735.062,1.8,2.448h-3.037q0,1.364,1.209,1.364A1.086,1.086,0,0,0,705.454,333.6Zm-2.294-1.085h2.325q-.125-1.239-1.178-1.24A1.207,1.207,0,0,0,703.161,332.516Z" transform="translate(-533.915 -329.231)" fill="#c39569"/>
    </g>
  </g>
</svg>
