<svg id="圖層_1" data-name="圖層 1" xmlns="http://www.w3.org/2000/svg" width="2.5cm" height="1.75cm" viewBox="0 0 70.87 49.67">
  <path d="M48.72,17.27a11.08,11.08,0,1,0,22.15,0v-12A5.32,5.32,0,0,0,65.55,0V17.27a5.76,5.76,0,1,1-11.51,0V12.4a5.32,5.32,0,0,0-5.32-5.31ZM16,5.31A5.31,5.31,0,0,0,21.26,0H8.84c0,.15,0,.29,0,.44A5.31,5.31,0,0,1,5.67,5.31ZM2.66,0A2.66,2.66,0,1,1,0,2.66,2.66,2.66,0,0,1,2.66,0ZM5.24,11.52A5.3,5.3,0,0,0,0,7.09V28.35H16A5.32,5.32,0,0,0,21.26,23H5.32v-6.2H16a5.31,5.31,0,0,0,5.31-5.31Zm24,.88a5.31,5.31,0,0,0-5.31-5.31V28.35h8A14.17,14.17,0,0,0,32.76,0c0,.13,0,.27,0,.41a5.32,5.32,0,0,1-3.19,4.87h2.3a8.86,8.86,0,1,1,0,17.71H29.23ZM26.57,0a2.66,2.66,0,1,1-2.65,2.66A2.66,2.66,0,0,1,26.57,0ZM54.26,36.77h1.3v0a1.31,1.31,0,0,1-.33.8,2,2,0,0,1-.93.42v.59A3,3,0,0,0,55.7,38a1.93,1.93,0,0,0,.55-1.19v0h1.07v1a.7.7,0,0,0,.87.86h1a.57.57,0,0,0,.41-.17.63.63,0,0,0,.17-.37H58.24c-.11,0-.18,0-.22-.08a.36.36,0,0,1-.05-.23v-1h1.46v.83h.65V36.19H57.13v-.06a.64.64,0,0,0-.19-.46.65.65,0,0,0-.42-.19v.71h-3V37.6h.65v-.83Zm4.83,5.15a.44.44,0,0,1-.25-.05.27.27,0,0,1-.09-.24V39.16H56.66V39a.69.69,0,0,0-.22-.51.73.73,0,0,0-.47-.21v.88H54v.61h1.93v0a2.53,2.53,0,0,1-.71,1.33,3,3,0,0,1-1.36.76v.65a3.81,3.81,0,0,0,1.86-1,3.27,3.27,0,0,0,.93-1.79v0h1.45V41.7a.94.94,0,0,0,.2.64.85.85,0,0,0,.66.23h.49a.7.7,0,0,0,.48-.2.66.66,0,0,0,.19-.45ZM33.63,37.71a6.58,6.58,0,0,0,.57-.4c.24-.19.46-.38.62-.53h1.3l1.12,1H33.52Zm-.68.95v3.91h.63V41.39h2.78a.6.6,0,0,0,.43-.18.57.57,0,0,0,.18-.4H33.58V40.3h2.78a.6.6,0,0,0,.43-.18.57.57,0,0,0,.18-.4H33.58v-.51h3.79V41.6a.37.37,0,0,1-.1.28A.39.39,0,0,1,37,42h-.25v.58H37a1.22,1.22,0,0,0,.71-.2.81.81,0,0,0,.29-.71v-3Zm2.87-2.5v0a.64.64,0,0,0-.19-.46.65.65,0,0,0-.42-.19v.72H32.13v.57H34l-.06.06a5.58,5.58,0,0,1-.55.44l-.65.4v.62h5.54v-.47l-.68-.53c-.18-.15-.33-.28-.52-.46L37,36.77h1.31a.6.6,0,0,0,.43-.18.62.62,0,0,0,.18-.39H35.82Zm-12.35.64H24l-.08.12a4.21,4.21,0,0,1-.39.55l-.06.08V36.8Zm3.52.59c0,.45-.09.92-.17,1.38a6,6,0,0,1-.35,1.28l0,.08,0-.08a9.12,9.12,0,0,1-.4-1.32,8.32,8.32,0,0,1-.16-1.34v0H27Zm-.88-.66a8.19,8.19,0,0,0,.16-.95l0-.17h-.61a10.26,10.26,0,0,1-.32,1.45,8.63,8.63,0,0,1-.6,1.53h.68v0c.07.35.14.69.23,1a7.48,7.48,0,0,0,.36,1h0v0a3.74,3.74,0,0,1-.57.69,4,4,0,0,1-.64.52v.7a5.24,5.24,0,0,0,.84-.59,6.25,6.25,0,0,0,.71-.75l0,0,0,0a3.47,3.47,0,0,0,.66.73,5.48,5.48,0,0,0,.88.6v-.71a4.63,4.63,0,0,1-.68-.57,2.65,2.65,0,0,1-.47-.59v0a5.54,5.54,0,0,0,.49-1.49,17.66,17.66,0,0,0,.22-1.78v0h0a.73.73,0,0,0,.48-.18.6.6,0,0,0,.2-.4H26.1ZM23.29,38.6l.23-.24.23-.25v0h.62a.59.59,0,0,0,.42-.17.62.62,0,0,0,.18-.39h-.77l0-.06a6.12,6.12,0,0,0,.5-.78,6.59,6.59,0,0,0,.39-.8h-.68c0,.06-.05.11-.07.17l-.09.17v0h-.85v-.13a.6.6,0,0,0-.19-.45.63.63,0,0,0-.41-.19v.77H21.77v.55h1.07v.73H21.48v.56h1.43l-.06.06a5.91,5.91,0,0,1-.69.6,6.93,6.93,0,0,1-.68.47v.68l.63-.39a4.25,4.25,0,0,0,.5-.34h1.18l-.05.06a4.11,4.11,0,0,1-.3.29,2.89,2.89,0,0,1-.35.32v.44H21.77v.57h1.32v.81a.22.22,0,0,1,0,.14.18.18,0,0,1-.17.08h-.65v.58h.66a1.13,1.13,0,0,0,.6-.13.6.6,0,0,0,.24-.55v-.93h.62a.62.62,0,0,0,.61-.57H23.74V40h0a5.76,5.76,0,0,0,.6-.61,7.63,7.63,0,0,0,.49-.69H23.23ZM3,38.87v.42H2.21v-.46H3Zm-2,0h.7v.46H1v-.46Zm.7-2.39v.34H1V36.4h.73ZM1,37.64v-.37h.73v.4H1Zm1.22,0v-.37H3v.4H2.21ZM3,36.44v.34H2.21V36.4H3Zm-.76,5-1-.47.22-.3H2.85A1.42,1.42,0,0,1,2.22,41.43Zm3.62-4c0,.45-.09.92-.17,1.38A6.06,6.06,0,0,1,5.32,40l0,.08,0-.08a7.73,7.73,0,0,1-.4-1.32,7.12,7.12,0,0,1-.16-1.33v0H5.84ZM3.62,38.58H4.3v0q.11.51.24,1a6.51,6.51,0,0,0,.35,1v0h0a4.24,4.24,0,0,1-.54.65,5,5,0,0,1-.67.52v.7A5.06,5.06,0,0,0,4.51,42a4.89,4.89,0,0,0,.71-.73l0,0,0,0a3.47,3.47,0,0,0,.66.73,4.45,4.45,0,0,0,.87.59v-.7a4.63,4.63,0,0,1-.68-.57,2.65,2.65,0,0,1-.47-.59v0h0a5.39,5.39,0,0,0,.49-1.5,14.76,14.76,0,0,0,.22-1.77v0h0a.73.73,0,0,0,.48-.18.57.57,0,0,0,.2-.39H4.91l0-.05a4.42,4.42,0,0,0,.2-1v-.11h-.6a10.45,10.45,0,0,1-.32,1.44A8.11,8.11,0,0,1,3.62,38.58ZM2.17,39.69H3.54V38.43H2.21v-.34H3.54v-.82h0A.56.56,0,0,0,4,37.12a.53.53,0,0,0,.15-.34H3.54V36H2.21v0A.53.53,0,0,0,2,35.62a.55.55,0,0,0-.32-.14V36H.46v.78H0v.49H.46v.82H1.72v.34H.46v1.26H1.58l-.39.53H.28v.44H.87l-.33.47,1.16.56a3.63,3.63,0,0,1-1.42.36v.52a5.16,5.16,0,0,0,2-.61h0l1.18.59V42l-.74-.33a1.81,1.81,0,0,0,.75-1h0a.44.44,0,0,0,.33-.14.45.45,0,0,0,.14-.3H1.76l.39-.53Zm10.11-4.1a9.64,9.64,0,0,1-.62,1.3A8.26,8.26,0,0,1,10.88,38v1.08l.27-.31a3.79,3.79,0,0,0,.3-.4l.07-.09v4.25h.66V37.28h0c.14-.26.3-.56.44-.87s.24-.56.34-.81Zm2.38,5.34c0-.35-.1-.78-.19-1.24s-.2-1.08-.32-1.61h-.61c.1.49.19,1,.27,1.51s.14.95.18,1.34Zm.14-5.45v1.3H13v.63h3.63a.65.65,0,0,0,.47-.19.67.67,0,0,0,.2-.44H15.41v-.65a.64.64,0,0,0-.19-.46A.65.65,0,0,0,14.8,35.48Zm1.25,6.12c.12-.44.25-1,.38-1.56s.27-1.34.39-2h-.7c-.07.57-.18,1.22-.3,1.85s-.25,1.21-.38,1.69v0H13v.63h3.82a.67.67,0,0,0,.47-.19.66.66,0,0,0,.19-.44H16ZM47,38.45v-2h1.16v2H47Zm-2.34,3.2h-.87V38.8h.9v2.85Zm-1.91-5.21h.91v0A10.82,10.82,0,0,1,43.26,38a5.29,5.29,0,0,1-.53,1.12v1a2.28,2.28,0,0,0,.22-.22,1.61,1.61,0,0,0,.22-.3l.07-.11v2.77h2v-4H43.78l0,0c.09-.28.18-.56.25-.84s.14-.57.2-.87v0h.55a.6.6,0,0,0,.43-.18.58.58,0,0,0,.18-.4H42.73Zm6,2v-2H49a.64.64,0,0,0,.46-.19.56.56,0,0,0,.18-.41H45.77v.6h.6v2h-.6v.62h.6v0a6,6,0,0,1-.14,1.2,4,4,0,0,1-.45,1.15v1a3.71,3.71,0,0,0,.82-1.37,6.37,6.37,0,0,0,.38-2v0h1.17v3.47h.63V39.1H49a.64.64,0,0,0,.46-.19.61.61,0,0,0,.19-.43h-.83Zm17.78-.52v1.16H65.13V37.9h1.42Zm.62,1.74V37.31h-2v-.79h0l1-.15a8.28,8.28,0,0,0,1-.2v-.68a6.77,6.77,0,0,1-1.14.31,13,13,0,0,1-1.55.21v3.71a6,6,0,0,1-.08,1,2.3,2.3,0,0,1-.31.89v.9a2.36,2.36,0,0,0,.81-1.29,6.89,6.89,0,0,0,.19-1.53v0Zm1.24-1.76v-1.3h0l1.07-.19q.45-.09.87-.21V35.5a8.36,8.36,0,0,1-1.09.34c-.5.12-1,.22-1.54.29v2.58a9.27,9.27,0,0,1-.09,1.39,3.67,3.67,0,0,1-.41,1.29v1.13a3.92,3.92,0,0,0,.93-1.85,9.06,9.06,0,0,0,.23-2.05v0h1.11v4h.64v-4h0a.63.63,0,0,0,.47-.2.67.67,0,0,0,.2-.43H68.41ZM1.28,49.15H.45V46.47h.83a.82.82,0,0,1,.73.26,3,3,0,0,1,0,2.16A.8.8,0,0,1,1.28,49.15Zm13.18.46h.46l-1.14-3.48s0-.07,0-.08a.13.13,0,0,0-.1,0h-.54a.15.15,0,0,0-.1,0,.15.15,0,0,0-.06.09L11.8,49.61h.45l.34-1.11h.59a.48.48,0,0,0,.34-.14.51.51,0,0,0,.15-.31h-.94c.17-.53.33-1.06.49-1.58h.27v0c.2.7.42,1.4.64,2.1C14.24,48.92,14.35,49.26,14.46,49.61ZM1.28,46H0v3.6H1.28a1.31,1.31,0,0,0,1.1-.37,2.3,2.3,0,0,0,.32-1.43,2.3,2.3,0,0,0-.32-1.43A1.31,1.31,0,0,0,1.28,46Zm14.23,2.91a.72.72,0,0,0,.17.49.78.78,0,0,0,.57.2h1a.47.47,0,0,0,.34-.15.51.51,0,0,0,.15-.3H16.36a.45.45,0,0,1-.3-.09.39.39,0,0,1-.1-.3V46.51a.48.48,0,0,0-.14-.35.45.45,0,0,0-.31-.14Zm-8.58.69h.34V48a.49.49,0,0,0-.15-.34.51.51,0,0,0-.3-.15v1.68H6.16a.81.81,0,0,1-.73-.28,3,3,0,0,1,0-2.14.81.81,0,0,1,.73-.27h.52A.5.5,0,0,0,7.17,46h-1A1.25,1.25,0,0,0,5,46.5a3.56,3.56,0,0,0,0,2.62,1.25,1.25,0,0,0,1.16.49Zm-3.42,0H4v-3.1a.48.48,0,0,0-.14-.35A.45.45,0,0,0,3.51,46Zm4.6,0h.45v-3.1a.48.48,0,0,0-.14-.35A.45.45,0,0,0,8.11,46ZM64.5,48.23a1.34,1.34,0,0,1-.19.82.84.84,0,0,1-.67.23.83.83,0,0,1-.67-.23,1.34,1.34,0,0,1-.19-.82V46.51a.48.48,0,0,0-.14-.35.5.5,0,0,0-.31-.14v2.21a1.62,1.62,0,0,0,.3,1.12,1.32,1.32,0,0,0,1,.32,1.24,1.24,0,0,0,1-.32A1.67,1.67,0,0,0,65,48.23V46.51a.48.48,0,0,0-.14-.35A.5.5,0,0,0,64.5,46Zm-6.4,1.38h.45v-3.1a.49.49,0,0,0-.15-.35.47.47,0,0,0-.3-.14ZM54.81,46v.46H55.9v3.14h.46V46.47H57a.51.51,0,0,0,.35-.15.5.5,0,0,0,.14-.31Zm-1.65,0a1.88,1.88,0,0,0-.91.13c-.19.11-.28.32-.28.73a1.14,1.14,0,0,0,.15.65.93.93,0,0,0,.55.35l.74.21a.71.71,0,0,1,.35.15.54.54,0,0,1,.12.41c0,.25-.05.37-.17.44a1.21,1.21,0,0,1-.57.07h-.62a.56.56,0,0,0-.35.15.5.5,0,0,0-.14.31h1.1a1.63,1.63,0,0,0,.93-.18c.19-.13.28-.37.28-.78a1.07,1.07,0,0,0-.15-.63,1,1,0,0,0-.57-.34l-.72-.2a.64.64,0,0,1-.36-.18.6.6,0,0,1-.11-.42c0-.42.22-.42.73-.42h.6a.47.47,0,0,0,.34-.15.51.51,0,0,0,.15-.31Zm-5.87,3.6h.45v-3.1a.53.53,0,0,0-.14-.35.52.52,0,0,0-.31-.14ZM59.17,46v.46h1.09v3.14h.46V46.47h.67a.5.5,0,0,0,.49-.46Zm6.34,0v.46H66.6v3.14h.46V46.47h.67a.5.5,0,0,0,.49-.46ZM50.76,49.15h.07V46a.5.5,0,0,1,.46.49v3.17h-.62a.18.18,0,0,1-.11,0,.24.24,0,0,1-.08-.11l-1.35-3H49v3.14h-.45V46h.6a.21.21,0,0,1,.12,0,.24.24,0,0,1,.08.11Zm18.66,0a.29.29,0,0,1-.25-.1.39.39,0,0,1-.08-.29V48h1.29a.49.49,0,0,0,.34-.15.48.48,0,0,0,.15-.3H69.09v-.69a.39.39,0,0,1,.08-.29.29.29,0,0,1,.25-.09h1a.49.49,0,0,0,.34-.15.51.51,0,0,0,.15-.31H69.33a.75.75,0,0,0-.51.17.59.59,0,0,0-.19.45V49a.59.59,0,0,0,.19.45.75.75,0,0,0,.51.17h1a.49.49,0,0,0,.34-.15.51.51,0,0,0,.15-.3ZM40.63,46.34a.79.79,0,0,1,.75.33,3.35,3.35,0,0,1,0,2.28.79.79,0,0,1-.75.33.77.77,0,0,1-.74-.33,3.35,3.35,0,0,1,0-2.28A.77.77,0,0,1,40.63,46.34ZM23.44,49.15h-.83V46.47h.83a.82.82,0,0,1,.73.26,3,3,0,0,1,0,2.16A.8.8,0,0,1,23.44,49.15ZM34.68,46v.46h1.09v3.14h.46V46.47h.67a.5.5,0,0,0,.49-.46Zm-.39,3.6h.46l-1.14-3.48a.12.12,0,0,0,0-.08.13.13,0,0,0-.1,0h-.54a.15.15,0,0,0-.1,0,.15.15,0,0,0-.06.09l-1.13,3.48h.45l.34-1.11H33a.48.48,0,0,0,.35-.14.51.51,0,0,0,.15-.31h-.94c.16-.53.33-1.06.49-1.58h.27v0c.2.7.42,1.4.64,2.1C34.07,48.92,34.18,49.26,34.29,49.61ZM23.44,46H22.16v3.6h1.28a1.32,1.32,0,0,0,1.1-.37,2.31,2.31,0,0,0,.31-1.43,2.31,2.31,0,0,0-.31-1.43A1.32,1.32,0,0,0,23.44,46ZM38,49.61h.45v-3.1a.53.53,0,0,0-.14-.35A.45.45,0,0,0,38,46Zm-18-.45a.3.3,0,0,1-.26-.1.44.44,0,0,1-.08-.29V48H21a.51.51,0,0,0,.35-.15.47.47,0,0,0,.14-.3H19.7v-.69a.44.44,0,0,1,.08-.29.3.3,0,0,1,.26-.09H21a.51.51,0,0,0,.35-.15.5.5,0,0,0,.14-.31H20a.76.76,0,0,0-.52.17.58.58,0,0,0-.18.45V49a.58.58,0,0,0,.18.45.76.76,0,0,0,.52.17h1a.51.51,0,0,0,.35-.15.49.49,0,0,0,.14-.3ZM30.11,46a1.22,1.22,0,0,0-1.13.51,2.63,2.63,0,0,0-.23,1.31A2.44,2.44,0,0,0,29,49.12a1.25,1.25,0,0,0,1.16.49h1a.5.5,0,0,0-.49-.45h-.52a.8.8,0,0,1-.73-.28,1.79,1.79,0,0,1-.21-1.05,2.28,2.28,0,0,1,.13-.94.76.76,0,0,1,.78-.42h.55a.47.47,0,0,0,.34-.15.46.46,0,0,0,.15-.31ZM27.7,48.2a1.32,1.32,0,0,1-.19.81,1.06,1.06,0,0,1-1.34,0A1.32,1.32,0,0,1,26,48.2V46.47a.48.48,0,0,0-.45-.49V48.2a1.59,1.59,0,0,0,.3,1.11,1.32,1.32,0,0,0,1,.33,1.24,1.24,0,0,0,1-.33,1.59,1.59,0,0,0,.29-1.11V46.47A.48.48,0,0,0,27.7,46Zm15-2.18v3.59h.45V46.47h.08l1.35,3a.44.44,0,0,0,.08.1.16.16,0,0,0,.12,0h.61V46.44a.53.53,0,0,0-.14-.35A.5.5,0,0,0,45,46v3.21H44.9l-1.37-3a.35.35,0,0,0-.08-.11.21.21,0,0,0-.12,0h-.6ZM40.63,46a1.29,1.29,0,0,0-1.1.39,2.39,2.39,0,0,0-.32,1.47,2.39,2.39,0,0,0,.32,1.47,1.29,1.29,0,0,0,1.1.39,1.31,1.31,0,0,0,1.11-.39,2.39,2.39,0,0,0,.32-1.47,2.39,2.39,0,0,0-.32-1.47A1.31,1.31,0,0,0,40.63,46ZM9.18,46v.46h1.09v3.14h.46V46.47h.67a.5.5,0,0,0,.49-.46ZM51.38,0a2.66,2.66,0,1,1-2.66,2.66A2.66,2.66,0,0,1,51.38,0Z" fill="#72a4d3"/>
</svg>
