<svg xmlns="http://www.w3.org/2000/svg" width="532" height="176.008" viewBox="0 0 532 176.008">
  <g id="TEPA_Logo_橫_英" transform="translate(-8.529 -7.5)">
    <path id="Path_57" data-name="Path 57" d="M145.926,41.693H118.8V33.1h65.6v8.593H157.273v71.4H145.926Z" transform="translate(118.064 27.409)" fill="#155f65"/>
    <path id="Path_58" data-name="Path 58" d="M161.2,33.1H212.97v8.593H172.55V66.769h33.876v8.614H172.467v28.989h41.662v8.614H161.12Z" transform="translate(163.375 27.409)" fill="#155f65"/>
    <path id="Path_59" data-name="Path 59" d="M198.79,33.1h25.656c20.023,0,33.462,6.088,33.462,23.544,0,16.876-13.314,24.724-32.986,24.724H210.137V113.09H198.79Zm24.662,40.109c15.779,0,23.212-5.135,23.212-16.565s-7.931-15.261-23.689-15.261H210.137V73.209Z" transform="translate(203.708 27.409)" fill="#155f65"/>
    <path id="Path_60" data-name="Path 60" d="M260.4,33.1h12.59l30.418,79.99H291.437l-8.552-24.413H250.148l-8.676,24.413H230Zm-7.454,47.522h27.126l-4.286-12.217c-3.292-9.049-6.212-17.766-9.028-26.919h-.5c-2.8,9.359-5.736,17.973-8.9,26.919Z" transform="translate(237.124 27.409)" fill="#155f65"/>
    <circle id="Ellipse_6" data-name="Ellipse 6" cx="25.324" cy="25.324" r="25.324" transform="translate(124.282 122.733)" fill="#aac952"/>
    <path id="Path_61" data-name="Path 61" d="M124.256,7.5H44.68A21.452,21.452,0,0,1,65.842,29.242v74.337h72.08a7.993,7.993,0,0,0,7.993-8.076V29.7A21.949,21.949,0,0,0,124.256,7.5Z" transform="translate(38.706 0)" fill="#155f65"/>
    <path id="Path_62" data-name="Path 62" d="M83.386,7.5H29.693A21.452,21.452,0,0,0,8.531,29.242V47.588H69.368a8.014,8.014,0,0,1,0,16.006H8.531v111.92A8.014,8.014,0,0,0,21.8,181.54L56.529,151.2,91.275,181.54a8.014,8.014,0,0,0,13.273-6.026V29.242A21.452,21.452,0,0,0,83.386,7.5Z" transform="translate(0 0)" fill="#16a9b1"/>
  </g>
</svg>
