<svg id="圖層_1" data-name="圖層 1" xmlns="http://www.w3.org/2000/svg" viewBox="0 0 16 16"><defs><style>.cls-1{fill:#aac952;}.cls-2{fill:#155f65;}.cls-3{fill:#16a9b1;}</style></defs><circle class="cls-1" cx="12.52" cy="12.48" r="2.16"/><path class="cls-2" d="M13.65.5H6.88a1.84,1.84,0,0,1,1.8,1.86h0V8.69h6.14A.68.68,0,0,0,15.5,8h0V2.39A1.88,1.88,0,0,0,13.65.5Z"/><path class="cls-3" d="M6.88.5H2.3A1.83,1.83,0,0,0,.5,2.35h0V3.92H5.68a.68.68,0,0,1,.65.71.69.69,0,0,1-.65.65H.5v9.54a.69.69,0,0,0,.68.68.66.66,0,0,0,.45-.17l3-2.59,3,2.59a.67.67,0,0,0,1-.07.66.66,0,0,0,.17-.44V2.36A1.84,1.84,0,0,0,6.88.5Z"/></svg>