<svg xmlns="http://www.w3.org/2000/svg" width="344.228" height="61" viewBox="0 0 344.228 61">
  <g id="TEPA_Logo_橫_中英" transform="translate(-6.179 -7.5)">
    <path id="Path_20" data-name="Path 20" d="M143.947,14.708v1.88H131.869v1.32h9.71V19.66H119.49V17.9h9.494V16.588H117.15v-1.88h11.834V13h2.871v1.722ZM131.869,38.555H143.89v2H117.215v-2h11.769V37.2h-8.791v-1.78h8.791V34.192c-5.626.151-6.516.244-7.133.431a15.988,15.988,0,0,0-.639-1.938,8.339,8.339,0,0,0,1.658-.4,19.808,19.808,0,0,0,2.576-1.227h-4.758V29.4h19.448v1.658h-2.921a31.685,31.685,0,0,1,3.933,2.756l-1.715,1.435c-.4-.366-.89-.768-1.507-1.227l-6.057.151v1.292h9.279v1.78h-9.279ZM117.616,26.413h25.835v4.428h-2.727V28.286H120.193v2.555h-2.576Zm22.828-5.619v4.514h-19.7V20.794Zm-2.8,1.507H123.394v1.464h14.252Zm-8.971,8.755a24.637,24.637,0,0,1-2.734,1.507l9.681-.187c-.675-.431-1.385-.825-2.031-1.163l.244-.187Z" transform="translate(-31.333 -1.553)" fill="#1e1e1e"/>
    <path id="Path_21" data-name="Path 21" d="M167.4,26.728a19.613,19.613,0,0,0-4.4-3.2l1.564-1.966a18.888,18.888,0,0,1,4.492,2.95Zm-3.775,12.788a101.309,101.309,0,0,0,3.811-9.746L169.7,31.25c-.983,3.165-2.3,6.854-3.531,9.71Zm4.306-20.683a19.082,19.082,0,0,0-4.306-3.409l1.658-1.88a19.972,19.972,0,0,1,4.392,3.136Zm3.588,5.806a14.841,14.841,0,0,1-1.292,4.148,7.069,7.069,0,0,0-1.32-.89,11,11,0,0,0,1.105-3.588Zm4-1.227a9.742,9.742,0,0,0-.316-.99c-4.026.553-4.794.718-5.224.926a8,8,0,0,0-.617-1.292,2.914,2.914,0,0,0,1.435-1.076,17.223,17.223,0,0,0,1.751-2.153,11.59,11.59,0,0,0-2.67.431,6.4,6.4,0,0,0-.581-1.292c.366-.057.61-.366.947-.825a14.905,14.905,0,0,0,1.844-3.811l1.694.581a16.327,16.327,0,0,1-2.017,3.488l1.751-.093c.309-.459.553-.919.8-1.378l1.6.754a28.139,28.139,0,0,1-3.531,4.7l2.239-.273-.488-.9,1.292-.459a15.673,15.673,0,0,1,1.435,3.072Zm14.532,11.612a5.99,5.99,0,0,1-.187,1.076c-.517,2.555-1.134,3.9-1.938,4.521a4,4,0,0,1-2.548.718c-.919,0-2.792,0-4.7-.093a4.873,4.873,0,0,0-.768-2.153c1.873.187,3.875.215,4.643.215a2.225,2.225,0,0,0,1.32-.215,3.991,3.991,0,0,0,1.105-2.153H171.188a48.235,48.235,0,0,0,1.349-4.851h13.427v-1.4H171.49V28.968h17.145v4.765H174.748l-.373,1.285Zm-17.4-6.789a16.928,16.928,0,0,0-.61-3.66l1.349-.337a14.934,14.934,0,0,1,.718,3.531Zm2.677-.718a15.334,15.334,0,0,0-.954-3.344l1.227-.431a12.616,12.616,0,0,1,1.033,3.165Zm8.361-9.738h-7.313V16.15h3.129a16.765,16.765,0,0,0-1.076-2.332l1.873-.431a11.755,11.755,0,0,1,1.234,2.4l-1.435.366h3.588Zm-6.459,5.741h5.806v4.521h-5.806Zm5.777-3.287h-5.741V18.8h5.741Zm-5.741.832h5.741V22.5h-5.741Zm1.722,5.562h2.153V24.877h-2.153Zm6.818-2.06a16.3,16.3,0,0,1-1.292,4.148,6.817,6.817,0,0,0-1.32-.919A9.753,9.753,0,0,0,184.3,24.21Zm4.026-1.048c-.093-.273-.215-.675-.366-1.069-4.026.581-4.794.718-5.26.919-.086-.244-.395-.954-.581-1.32A2.871,2.871,0,0,0,185.06,21a22.561,22.561,0,0,0,1.694-2.153,9.81,9.81,0,0,0-2.641.431,10,10,0,0,0-.553-1.32c.3,0,.61-.337.919-.8a14.654,14.654,0,0,0,1.873-3.8l1.658.581a16.169,16.169,0,0,1-1.988,3.466l1.78-.093c.251-.459.524-.926.718-1.385l1.629.718a26.662,26.662,0,0,1-3.531,4.7l2.239-.28c-.151-.309-.337-.61-.488-.89l1.256-.459a13.054,13.054,0,0,1,1.507,3.222Zm-2.921,5.024a19.156,19.156,0,0,0-.646-4l1.356-.309a16.39,16.39,0,0,1,.718,3.839Zm2.95-4.823a15.07,15.07,0,0,1,1.263,3.725l-1.356.581a15.681,15.681,0,0,0-1.163-3.933Z" transform="translate(-44.279 -1.646)" fill="#1e1e1e"/>
    <path id="Path_22" data-name="Path 22" d="M238.248,35.524H226.314v2.95c0,1.349-.309,2.031-1.378,2.4a17.81,17.81,0,0,1-5.074.4,10.213,10.213,0,0,0-.919-2.433c1.686.065,3.473.065,3.933.065s.646-.122.646-.524V35.509h-12.6V33.2h12.6v-1.12a28.784,28.784,0,0,0,4.148-2.088h-11V27.9h13.915l.617-.151,1.629,1.471a31.274,31.274,0,0,1-6.516,3.717V33.2h11.934ZM214.243,29.9h-2.706V24.034h2.311l-.553-9.1a58.507,58.507,0,0,0,6.021-1.564l1.234,1.686a27.206,27.206,0,0,1-4.521,1.2l.093,1.234h4.213v1.837h-4.119l.093,1.435h4.148v1.816a17.856,17.856,0,0,0,2.576-1.435,18.988,18.988,0,0,0-2-1.105l1.421-1.191c.675.337,1.435.718,2.153,1.163a8.835,8.835,0,0,0,1.378-1.5l1.938.61a16.221,16.221,0,0,1-1.686,1.873,15.609,15.609,0,0,1,2.024,1.572l-1.435,1.32a14.3,14.3,0,0,0-2.06-1.629,24.314,24.314,0,0,1-2.763,1.816h10.722a13.2,13.2,0,0,1,.151-1.435h-4.1V20.74h4.205l.129-1.435h-4.191V17.489h4.306l.057-1.385h-4.507V14.231h7.32c-.151,3.1-.431,7.033-.675,9.8h2.332V29.9h-2.828V26.18H214.243Zm2.3-5.863H221.8a8.683,8.683,0,0,0-1.435-1.435h-3.875Zm10.169-5.655a11.347,11.347,0,0,0-1.909-1.435,18.279,18.279,0,0,1-2.641,1.686,14.351,14.351,0,0,0-1.564-1.32,13.384,13.384,0,0,0,2.519-1.435,15.579,15.579,0,0,0-1.938-1.012l1.385-1.2c.646.3,1.385.675,2.06,1.069a8.331,8.331,0,0,0,1.292-1.349l1.93.524a14.673,14.673,0,0,1-1.593,1.808,16.176,16.176,0,0,1,1.873,1.356Z" transform="translate(-57.809 -1.657)" fill="#1e1e1e"/>
    <path id="Path_23" data-name="Path 23" d="M266.22,23.871c-2.612,1.069-5.282,2.239-7.471,3.1l-1.069-2.332c2.088-.682,5.1-1.751,8.109-2.828Zm6.882,2.95c-.431.8-.861,1.593-1.292,2.332h9.9V41.877h-2.985V40.736H264.684v1.141h-2.871V29.153h7.176a20.54,20.54,0,0,0,.89-2.332,1.866,1.866,0,0,1-.646.459,11.8,11.8,0,0,1-4.026.337,8.857,8.857,0,0,0-.718-2.088h2.77c.373,0,.488-.122.488-.431V17.326h-9.272V15.08h11.891V25.127a4.471,4.471,0,0,1-.151,1.227Zm-9.645-4.887a17.5,17.5,0,0,0-3.9-2.871l1.435-1.658a15.53,15.53,0,0,1,3.961,2.734Zm15.264,9.4H264.684V33.8h14.037Zm0,7.176V35.978H264.684V38.5ZM271.38,24.022c2.153-.675,5.382-1.751,8.483-2.871l.459,2.088c-2.734,1.048-5.655,2.153-7.959,2.95Zm12.7,1.048c0,1.256-.28,1.873-1.2,2.275s-2.275.366-4.306.366a9.12,9.12,0,0,0-.775-2.239c1.292.057,2.648.057,3.043.057s.5-.122.5-.459V17.326h-9.186V15.08h11.927ZM276.9,21.84a20,20,0,0,0-4.026-2.871l1.435-1.658a16.505,16.505,0,0,1,4.048,2.734Z" transform="translate(-71.012 -2.14)" fill="#1e1e1e"/>
    <path id="Path_24" data-name="Path 24" d="M330.876,34.33a11.324,11.324,0,0,1-3.969,4.205,33.872,33.872,0,0,0,5.346,1.069,7.521,7.521,0,0,0-1.378,2.031,29.539,29.539,0,0,1-6.552-1.751,29.51,29.51,0,0,1-6.882,1.808,7.226,7.226,0,0,0-1.105-1.966,28.318,28.318,0,0,0,5.411-1.105,17.806,17.806,0,0,1-2.4-1.658,20.677,20.677,0,0,1-2.153,1.349,18.736,18.736,0,0,0-1.78-1.564,18.916,18.916,0,0,0,2.426-1.32,17.325,17.325,0,0,1-1.234-1.629l2-.581a6.9,6.9,0,0,0,.861,1.076,14.073,14.073,0,0,0,1.686-1.629h-2.792V27.448a13.834,13.834,0,0,1-1.076,1.076c-.122-.244-.366-.718-.646-1.17a21.612,21.612,0,0,1-2.06,2.77V41.607h-2.519v-9a15.97,15.97,0,0,1-1.536,1.2,13.06,13.06,0,0,0-1.141-2.21,28.266,28.266,0,0,1-2.763,10.047,10.514,10.514,0,0,0-2.576-1.435c2.67-4.794,2.914-11.7,2.914-16.628v-9.1h23.6v6.667H309.82v2.426a71.294,71.294,0,0,1-.395,7.743,17.223,17.223,0,0,0,5.318-5.311l1.378.488-.179-.215a14.116,14.116,0,0,0,3.933-5.1l2.21.768c-.158.3-.337.675-.524,1.012h9.832v1.873H320.455c-.28.431-.581.8-.861,1.2h10.722v6.61h-6.925l.395.122c-.244.337-.517.646-.8.983h5.935l.459-.065Zm-21.056-17.6v2.153H327.7V16.726Zm6.732,5.468a19.139,19.139,0,0,1-4.887,4.858,13.992,13.992,0,0,0-1.629-1.808,14.748,14.748,0,0,0,4.241-3.753Zm4.148,6.459h7.176v-1.27H320.7Zm0,2.641h7.176V29.924H320.7Zm.309,4.428a17.5,17.5,0,0,0,3.351,1.9,10.765,10.765,0,0,0,3.043-2.153h-6.114Z" transform="translate(-84.104 -1.971)" fill="#1e1e1e"/>
    <path id="Path_25" data-name="Path 25" d="M361.008,26.51a15.135,15.135,0,0,1-3.344,3.811,10.171,10.171,0,0,0-1.234-1.435c-.273,4.392-.947,9.25-2.763,12.846a9.862,9.862,0,0,0-2.4-1.328c2.4-4.758,2.612-11.554,2.612-16.377V14.87h25.354v2.576H356.559v6.581c0,1.32-.036,2.763-.093,4.306a15.07,15.07,0,0,0,3.588-3.746h-2.706V22.52H361V20.7c-1.041.151-2.088.273-3.072.337a9.863,9.863,0,0,0-.646-1.686,30.813,30.813,0,0,0,7.349-1.385l1.844,1.435a15.445,15.445,0,0,1-3.079.861v2.275h3.38V24.58H363.4c.8.5,2.8,1.873,3.323,2.3l-1.385,1.78a16.054,16.054,0,0,0-1.938-1.808v3.5H361Zm8.239,12.049h10.047v2.4H356.1v-2.4h3.588V32.445h2.734V38.56h4.062V30.235h1.134a10.356,10.356,0,0,0-1.564-1.722A12.968,12.968,0,0,0,370.2,24.58h-2.555V22.52h3.9V20.647c-1.134.151-2.332.273-3.409.337a6.1,6.1,0,0,0-.646-1.694,36.494,36.494,0,0,0,8.109-1.435l1.844,1.478a17.876,17.876,0,0,1-3.5.919v2.275h4.729V24.58h-4.729v.057c1.048.617,4.521,3.043,5.382,3.689L378,30.235a48.981,48.981,0,0,0-4.083-3.445v3.588h-2.4V25.857a15.184,15.184,0,0,1-3.811,4.4h1.507v2.792h7.22v2.246h-7.191Z" transform="translate(-97.437 -2.081)" fill="#1e1e1e"/>
    <path id="Path_26" data-name="Path 26" d="M408.089,16.932v24.4h-2.4V35.8c-2.332.395-4.636.825-6.509,1.163l-.553-2.548,1.7-.244V16.946h-1.349V14.362h10.169v2.584Zm-2.4,0h-3.007v3.811h3.007Zm0,6.172h-3.007v3.875h3.007Zm0,10.27V29.347h-3.007V33.8Zm10.664-10.851c.553,1.6,1.227,3.811,1.507,5.024l-1.744.6c-.093-.431-.215-.954-.373-1.507-5.189.61-5.956.8-6.459,1.041a19.318,19.318,0,0,0-.617-2.519,4.557,4.557,0,0,0,1.787-1.471,23.483,23.483,0,0,0,1.722-2.246,8.189,8.189,0,0,0-2.677.5c-.093-.588-.431-1.873-.646-2.612a2.684,2.684,0,0,0,1.227-1.048,23.56,23.56,0,0,0,2.734-5.024l2.153.926a31.09,31.09,0,0,1-3.38,5.4l1.938-.057c.553-.861,1.105-1.787,1.564-2.677l1.938,1.019a48.978,48.978,0,0,1-5.224,7.22l3.438-.337c-.151-.646-.366-1.234-.553-1.816Zm.553,5.741v4.614a8.755,8.755,0,0,1-5.44,8.612,8.539,8.539,0,0,0-1.536-1.966c2.677-1.2,3.811-2.706,4.306-4.306h-4.148V28.234h2.332v4.614h2.117V28.234Zm8.54-.33c-.122-.431-.309-1.019-.488-1.629-5.2.825-5.992,1.012-6.459,1.32-.129-.588-.4-1.787-.646-2.49a3.267,3.267,0,0,0,1.629-1.435,18.472,18.472,0,0,0,1.715-2.462,8.451,8.451,0,0,0-3.007.553c-.158-.553-.4-1.78-.675-2.454a2.11,2.11,0,0,0,1.227-.983,22.247,22.247,0,0,0,2.705-4.887l1.9.954a33.817,33.817,0,0,1-3.072,5.024l2.06-.122c.431-.768.89-1.665,1.256-2.49l1.909,1.012a44.28,44.28,0,0,1-4.485,7.133l3.316-.4c-.244-.675-.488-1.292-.718-1.873l1.629-.524a47.546,47.546,0,0,1,1.9,5.067Zm-2.153.517h2.34v7.894H423.3v-1.1h-2.153v6.078h-2.462V28.206h2.462v4.579h2.117Z" transform="translate(-110.809 -1.624)" fill="#1e1e1e"/>
    <path id="Path_27" data-name="Path 27" d="M473.928,38.244v2.49H445.94v-2.49h3.588V31.067h21.077v7.176Zm-23.682-9.588h-2.612V14.805h9.99V27.063h-7.385Zm0-11.612v2.784h4.794v-2.8Zm4.787,7.808V22.025h-4.794v2.828Zm-2.871,13.427H455.6V33.328h-3.437ZM462.4,25.362a9.782,9.782,0,0,1-3.416,5.375,9.518,9.518,0,0,0-2-1.873c2.993-2.325,3.351-5.612,3.351-8.318V14.31h11.769V27.4c0,1.349-.309,2.031-1.234,2.426a12.614,12.614,0,0,1-4.392.459,8.532,8.532,0,0,0-1.048-2.39c1.478.057,2.871,0,3.258,0s.588-.122.588-.524v-2.06Zm-4.213,7.966v4.916h3.473V33.328Zm11.066-10.047V20.912h-6.33a20.544,20.544,0,0,1-.158,2.34Zm-6.33-6.667v2.3h6.33V16.585Zm1.349,16.743v4.916h3.5V33.328Z" transform="translate(-124.167 -1.923)" fill="#1e1e1e"/>
    <path id="Path_28" data-name="Path 28" d="M121.293,70.477H117.21V68.69h10.377v1.787h-4.069V82.132h-2.225Z" transform="translate(-31.35 -17.277)" fill="#1e1e1e"/>
    <path id="Path_29" data-name="Path 29" d="M133.149,80.72c0-2.153,1.887-3.265,6.222-3.725,0-1.163-.459-2.153-1.988-2.153a5.813,5.813,0,0,0-3.007,1.026l-.811-1.435a8.2,8.2,0,0,1,4.2-1.313c2.591,0,3.782,1.586,3.782,4.248v6.043h-1.78l-.172-1.155H139.5a5.253,5.253,0,0,1-3.308,1.385,2.82,2.82,0,0,1-3.043-2.921Zm6.222.072V78.33c-3.086.344-4.126,1.112-4.126,2.239,0,.983.718,1.385,1.629,1.385a3.739,3.739,0,0,0,2.5-1.163Z" transform="translate(-35.85 -18.528)" fill="#1e1e1e"/>
    <path id="Path_30" data-name="Path 30" d="M150.09,68.578a1.227,1.227,0,0,1,1.371-1.242,1.256,1.256,0,1,1,0,2.5,1.227,1.227,0,0,1-1.371-1.256Zm.266,3.136h2.153V81.761h-2.153Z" transform="translate(-40.633 -16.893)" fill="#1e1e1e"/>
    <path id="Path_31" data-name="Path 31" d="M157.76,73.44h2.189l1.385,5.425c.208.983.373,1.895.567,2.871h.072c.23-.969.438-1.9.718-2.871l1.478-5.418h2l1.457,5.418c.244.983.452,1.895.718,2.871h.079c.208-.969.38-1.88.6-2.871l1.342-5.418h2.045L169.73,83.494h-2.612l-1.32-4.966c-.244-.947-.438-1.859-.66-2.871h-.1c-.208,1.041-.395,1.974-.66,2.921l-1.263,4.945h-2.519Z" transform="translate(-42.799 -18.618)" fill="#1e1e1e"/>
    <path id="Path_32" data-name="Path 32" d="M181.339,80.72c0-2.153,1.887-3.265,6.222-3.725,0-1.163-.459-2.153-1.988-2.153a5.813,5.813,0,0,0-3.007,1.026l-.811-1.435a8.2,8.2,0,0,1,4.2-1.313c2.591,0,3.782,1.586,3.782,4.248v6.043h-1.78l-.172-1.155h-.072a5.231,5.231,0,0,1-3.308,1.385,2.82,2.82,0,0,1-3.064-2.921Zm6.222.072V78.33c-3.086.344-4.126,1.112-4.126,2.239,0,.983.718,1.385,1.629,1.385a3.739,3.739,0,0,0,2.49-1.163Z" transform="translate(-49.456 -18.528)" fill="#1e1e1e"/>
    <path id="Path_33" data-name="Path 33" d="M198.65,73.338h1.773l.172,1.385h.057A5.024,5.024,0,0,1,204.1,73.08c2.21,0,3.194,1.435,3.194,3.976v6.315h-2.153V77.328c0-1.737-.531-2.426-1.758-2.426a3.5,3.5,0,0,0-2.533,1.371v7.112h-2.153Z" transform="translate(-54.345 -18.517)" fill="#1e1e1e"/>
    <path id="Path_34" data-name="Path 34" d="M223.92,68.69h8.224v1.787H226.13v3.739h5.11V76h-5.11v4.342h6.244v1.787H223.92Z" transform="translate(-61.48 -17.277)" fill="#1e1e1e"/>
    <path id="Path_35" data-name="Path 35" d="M239.72,79.16h5.024v1.55H239.72Z" transform="translate(-65.941 -20.233)" fill="#1e1e1e"/>
    <path id="Path_36" data-name="Path 36" d="M251.77,68.69h4.213c3.1,0,5.318,1.041,5.318,4.069s-2.218,4.306-5.239,4.306h-2.1v5.088h-2.153Zm4.083,6.681c2.232,0,3.287-.818,3.287-2.584s-1.148-2.354-3.366-2.354h-1.816v4.937Z" transform="translate(-69.343 -17.277)" fill="#1e1e1e"/>
    <path id="Path_37" data-name="Path 37" d="M268.15,78.355a4.909,4.909,0,1,1,4.9,5.246A4.921,4.921,0,0,1,268.15,78.355Zm7.564,0c0-2.153-1.019-3.538-2.662-3.538s-2.648,1.435-2.648,3.538,1.019,3.538,2.648,3.538S275.714,80.486,275.714,78.355Z" transform="translate(-73.968 -18.517)" fill="#1e1e1e"/>
    <path id="Path_38" data-name="Path 38" d="M286.68,73.338h1.773l.172,1.808h.057a3.588,3.588,0,0,1,2.949-2.067,2.669,2.669,0,0,1,1.17.222l-.395,1.823a3.23,3.23,0,0,0-1.041-.165c-.847,0-1.873.567-2.512,2.153V83.37H286.7Z" transform="translate(-79.2 -18.516)" fill="#1e1e1e"/>
    <path id="Path_39" data-name="Path 39" d="M298.654,79.1V74.029H297.14V72.458l1.622-.108.251-2.77h1.816v2.77h2.67v1.679h-2.7v5.088c0,1.2.431,1.823,1.507,1.823a3.352,3.352,0,0,0,1.12-.237l.395,1.55a6.933,6.933,0,0,1-2.038.359C299.465,82.612,298.654,81.213,298.654,79.1Z" transform="translate(-82.153 -17.528)" fill="#1e1e1e"/>
    <path id="Path_40" data-name="Path 40" d="M310.435,73.253H309V71.681l1.435-.108V70.318c0-2.06.969-3.488,3.294-3.488a5.346,5.346,0,0,1,1.83.33l-.431,1.586a2.87,2.87,0,0,0-1.134-.251c-.933,0-1.385.581-1.385,1.8v1.277h2.131v1.679h-2.1v8.353h-2.153Z" transform="translate(-85.502 -16.752)" fill="#1e1e1e"/>
    <path id="Path_41" data-name="Path 41" d="M319.61,78.355a4.909,4.909,0,1,1,4.9,5.246A4.921,4.921,0,0,1,319.61,78.355Zm7.564,0c0-2.153-1.019-3.538-2.662-3.538s-2.648,1.435-2.648,3.538,1.019,3.538,2.648,3.538S327.174,80.486,327.174,78.355Z" transform="translate(-88.498 -18.517)" fill="#1e1e1e"/>
    <path id="Path_42" data-name="Path 42" d="M338.14,79.34V67.14h2.153V79.448c0,.567.244.768.51.768a1.614,1.614,0,0,0,.359,0l.28,1.586a3.7,3.7,0,0,1-1.17.158C338.757,81.924,338.14,80.962,338.14,79.34Z" transform="translate(-93.73 -16.839)" fill="#1e1e1e"/>
    <path id="Path_43" data-name="Path 43" d="M346.928,68.5a1.356,1.356,0,1,1,1.349,1.256,1.234,1.234,0,0,1-1.349-1.256Zm.266,3.136h2.153V81.68h-2.153Z" transform="translate(-96.21 -16.811)" fill="#1e1e1e"/>
    <path id="Path_44" data-name="Path 44" d="M355.16,78.355a4.906,4.906,0,1,1,4.894,5.246A4.919,4.919,0,0,1,355.16,78.355Zm7.564,0c0-2.153-1.026-3.538-2.67-3.538s-2.648,1.435-2.648,3.538,1.019,3.538,2.648,3.538S362.724,80.486,362.724,78.355Z" transform="translate(-98.535 -18.517)" fill="#1e1e1e"/>
    <path id="Path_45" data-name="Path 45" d="M383.244,68.69h2.533l4.6,13.442h-2.325l-1.17-3.832h-4.83l-1.191,3.832H378.63Zm-.682,7.952h3.8l-.553-1.808c-.474-1.435-.883-2.95-1.3-4.464h-.1c-.395,1.529-.832,3.007-1.285,4.464Z" transform="translate(-105.162 -17.277)" fill="#1e1e1e"/>
    <path id="Path_46" data-name="Path 46" d="M398.63,79.34V67.14h2.153V79.448c0,.567.244.768.51.768a1.579,1.579,0,0,0,.359,0l.287,1.586a3.717,3.717,0,0,1-1.177.158C399.218,81.924,398.63,80.962,398.63,79.34Z" transform="translate(-110.809 -16.839)" fill="#1e1e1e"/>
    <path id="Path_47" data-name="Path 47" d="M407.8,79.34V67.14h2.153V79.448c0,.567.244.768.509.768a1.58,1.58,0,0,0,.359,0l.287,1.586a3.717,3.717,0,0,1-1.177.158C408.381,81.924,407.8,80.962,407.8,79.34Z" transform="translate(-113.398 -16.839)" fill="#1e1e1e"/>
    <path id="Path_48" data-name="Path 48" d="M416.6,68.579a1.227,1.227,0,0,1,1.342-1.242,1.256,1.256,0,1,1,0,2.5,1.227,1.227,0,0,1-1.342-1.256Zm.266,3.136h2.153V81.762h-2.153Z" transform="translate(-115.883 -16.893)" fill="#1e1e1e"/>
    <path id="Path_49" data-name="Path 49" d="M425,80.72c0-2.153,1.895-3.265,6.222-3.725,0-1.163-.452-2.153-1.981-2.153a5.791,5.791,0,0,0-3.007,1.026l-.818-1.435a8.217,8.217,0,0,1,4.2-1.313c2.591,0,3.782,1.586,3.782,4.248v6.043h-1.773l-.165-1.184h-.079a5.217,5.217,0,0,1-3.308,1.385A2.827,2.827,0,0,1,425,80.72Zm6.222.072V78.33c-3.079.344-4.119,1.112-4.119,2.239,0,.983.718,1.385,1.622,1.385a3.71,3.71,0,0,0,2.5-1.163Z" transform="translate(-118.255 -18.528)" fill="#1e1e1e"/>
    <path id="Path_50" data-name="Path 50" d="M442.31,73.338h1.78l.172,1.385h.057a5.024,5.024,0,0,1,3.438-1.643c2.21,0,3.2,1.435,3.2,3.976v6.315H448.8V77.328c0-1.737-.524-2.426-1.758-2.426a3.524,3.524,0,0,0-2.533,1.371v7.112H442.36Z" transform="translate(-123.142 -18.517)" fill="#1e1e1e"/>
    <path id="Path_51" data-name="Path 51" d="M459.047,78.354a5.024,5.024,0,0,1,5.138-5.275,4.571,4.571,0,0,1,3.043,1.148L466.188,75.6a2.741,2.741,0,0,0-1.852-.782c-1.758,0-3.007,1.435-3.007,3.538s1.213,3.538,2.928,3.538a3.638,3.638,0,0,0,2.275-.911l.868,1.371a5.253,5.253,0,0,1-3.366,1.249C461.2,83.6,459.047,81.691,459.047,78.354Z" transform="translate(-127.867 -18.516)" fill="#1e1e1e"/>
    <path id="Path_52" data-name="Path 52" d="M473.3,78.355a4.947,4.947,0,0,1,4.744-5.275c2.763,0,4.256,1.916,4.256,4.744a5.248,5.248,0,0,1-.115,1.076h-6.746a3.086,3.086,0,0,0,3.215,3.064,4.543,4.543,0,0,0,2.476-.718l.754,1.328a6.459,6.459,0,0,1-3.516,1.055A4.943,4.943,0,0,1,473.3,78.355Zm7.112-.911c0-1.715-.818-2.72-2.325-2.72a2.77,2.77,0,0,0-2.67,2.72Z" transform="translate(-131.893 -18.517)" fill="#1e1e1e"/>
    <circle id="Ellipse_4" data-name="Ellipse 4" cx="8.777" cy="8.777" r="8.777" transform="translate(46.296 47.437)" fill="#aac952"/>
    <path id="Path_53" data-name="Path 53" d="M69.909,7.5H42.33a7.435,7.435,0,0,1,7.334,7.535V40.8H74.646a2.77,2.77,0,0,0,2.77-2.8V15.193A7.607,7.607,0,0,0,69.909,7.5Z" transform="translate(-10.207 0)" fill="#155f65"/>
    <path id="Path_54" data-name="Path 54" d="M32.123,7.5H13.514A7.435,7.435,0,0,0,6.18,15.035v6.358H27.264a2.777,2.777,0,0,1,0,5.547H6.18V65.73a2.777,2.777,0,0,0,4.6,2.088L22.815,57.3,34.857,67.818a2.777,2.777,0,0,0,4.6-2.088V15.035A7.435,7.435,0,0,0,32.123,7.5Z" transform="translate(0 0)" fill="#16a9b1"/>
  </g>
</svg>
