<svg xmlns="http://www.w3.org/2000/svg" width="141.344" height="115.006" viewBox="0 0 141.344 115.006">
  <g id="TEPA_Logo" transform="translate(-1368.593 -538.194)">
    <path id="Path_3" data-name="Path 3" d="M1427.741,646.328a13.24,13.24,0,0,1-2.4-.565,1.1,1.1,0,0,1,.009-.495c.044-.248.132-.707.195-1.034a1.435,1.435,0,0,1,.176-.6,2.672,2.672,0,0,1,.45.124,12.747,12.747,0,0,0,2.483.5,5.291,5.291,0,0,0,3.816-.733,3.6,3.6,0,0,0,1-2.7l-.026-.362-.354.168a7.794,7.794,0,0,1-2.429.584,7.486,7.486,0,0,1-2.447-.318,5.079,5.079,0,0,1-2.067-1.3,6.03,6.03,0,0,1-.963-1.475.317.317,0,0,0-.08-.195,6.336,6.336,0,0,1-.547-2.1,6.97,6.97,0,0,1,2.084-6.14,6.205,6.205,0,0,1,4.558-1.431,12.769,12.769,0,0,1,3.552.415l1.123.239v6.334c0,5.91-.01,6.4-.168,7.183a4.105,4.105,0,0,1-1.246,2.438,3.806,3.806,0,0,1-1.688,1.06.462.462,0,0,0-.22.071,6.358,6.358,0,0,1-1.625.371A13.337,13.337,0,0,1,1427.741,646.328Zm3.8-7.341a5.874,5.874,0,0,0,1.175-.345c.848-.4.769.018.769-4.178a35.59,35.59,0,0,0-.088-3.772,9.84,9.84,0,0,0-2.253-.3,3.646,3.646,0,0,0-3.569,2.067,4.949,4.949,0,0,0-.451,2.411,4.216,4.216,0,0,0,.98,3.145,3,3,0,0,0,1.625.972A3.308,3.308,0,0,0,1431.54,638.987Z" transform="translate(4.191 6.753)" fill="#640012"/>
    <path id="Path_4" data-name="Path 4" d="M1449.848,642.187a7.65,7.65,0,0,1-2.827-1.2,8.441,8.441,0,0,1-2.155-2.4,11.347,11.347,0,0,1-.989-2.721,15.015,15.015,0,0,1-.036-4.947,12.423,12.423,0,0,1,.848-2.482c.088-.168.247-.45.353-.628a7.812,7.812,0,0,1,4.1-3.268,6.8,6.8,0,0,1,3-.425,9.4,9.4,0,0,1,3.445.469,6.368,6.368,0,0,1,1.546.725c0,.088-.7,2.057-.752,2.111-.027.026-.079.009-.115-.035a10.314,10.314,0,0,0-3.992-1.105,9.225,9.225,0,0,0-2.094.381,5.377,5.377,0,0,0-3.056,2.809,7.416,7.416,0,0,0-.724,2.729,9.889,9.889,0,0,0,.371,4.065,8.625,8.625,0,0,0,.813,1.7,4.771,4.771,0,0,0,2.394,1.8,8.4,8.4,0,0,0,5.858-.318c.794-.317.857-.327.857-.114a6.666,6.666,0,0,0,.264.9c.354,1.007.345,1.069-.105,1.272a10.549,10.549,0,0,1-4.532.813A8.848,8.848,0,0,1,1449.848,642.187Z" transform="translate(5.628 6.442)" fill="#640012"/>
    <path id="Path_5" data-name="Path 5" d="M1386.949,641.795a4.4,4.4,0,0,1-3.33-2.985c-.362-1.1-.4-1.608-.4-6.034v-4.267h2.474v4.045c0,4.109.026,4.576.362,5.5.539,1.51,1.855,1.988,4.5,1.652l.839-.115.027-5.539.017-5.538h2.473v12.809l-.238.044c-.142.036-.406.088-.6.132-.566.124-1.37.266-2.032.354A20.129,20.129,0,0,1,1386.949,641.795Z" transform="translate(1.097 6.771)" fill="#640012"/>
    <path id="Path_6" data-name="Path 6" d="M1474.549,641.825a4.088,4.088,0,0,1-2.783-1.679,5.165,5.165,0,0,1-.168-4.3,4.522,4.522,0,0,1,2.421-1.829,10.5,10.5,0,0,1,3.843-.283,6.327,6.327,0,0,0,.777.142l.469.061-.062-.777c-.106-1.405-.486-2.086-1.422-2.553-.495-.256-.557-.266-1.705-.256a8.981,8.981,0,0,0-2.783.388c-.124.044-.247.088-.264.088a4.549,4.549,0,0,1-.247-1.255c-.124-.848-.151-.786.423-.962a9.779,9.779,0,0,1,3.092-.381,5.749,5.749,0,0,1,3,.477,3.645,3.645,0,0,1,1.767,1.7c.539,1.114.574,1.5.574,6.581,0,2.483-.027,4.523-.061,4.523s-.327.044-.645.088A23.581,23.581,0,0,1,1474.549,641.825Zm4.408-2.041c.124-.044.141-.3.141-1.934a10.013,10.013,0,0,0-.088-1.944,8.932,8.932,0,0,0-3.286-.142c-1.485.247-2.3,1.219-2.032,2.456.194.936.875,1.475,2.094,1.651A25.824,25.824,0,0,0,1478.958,639.784Z" transform="translate(7.694 6.75)" fill="#640012"/>
    <path id="Path_7" data-name="Path 7" d="M1374.07,634.332V626.69h-5.477v-2.208h13.516v2.208h-5.477v15.283h-2.562Z" transform="translate(0 6.469)" fill="#640012"/>
    <path id="Path_8" data-name="Path 8" d="M1396.78,635.382v-6.308l.247-.088a15.977,15.977,0,0,1,2.4-.592,13.258,13.258,0,0,1,4.708.186c.2.071.185.256-.168,1.97-.036.168-.08.193-.283.15-.133-.026-.513-.105-.857-.185a7.421,7.421,0,0,0-2.722,0,5.169,5.169,0,0,0-.777.185c-.044.027-.08,2.368-.08,5.521v5.468h-2.473Z" transform="translate(2.113 6.753)" fill="#640012"/>
    <path id="Path_9" data-name="Path 9" d="M1405.82,635.09v-6.581h2.474v13.162h-2.474Z" transform="translate(2.791 6.771)" fill="#640012"/>
    <path id="Path_10" data-name="Path 10" d="M1411.819,635.285v-6.4l.247-.044c.132-.036.4-.088.592-.132.4-.088,1.121-.212,2-.354a19.913,19.913,0,0,1,4.055.035,4.34,4.34,0,0,1,3.586,3.9,40.336,40.336,0,0,1,.125,5.018v4.39h-2.368l-.044-4.258c-.035-4.019-.053-4.3-.23-4.911a2.488,2.488,0,0,0-1.289-1.784,5.789,5.789,0,0,0-1.715-.354,18.029,18.029,0,0,0-2.279.23l-.2.036v11.042h-2.474Z" transform="translate(3.241 6.753)" fill="#640012"/>
    <path id="Path_11" data-name="Path 11" d="M1458.661,632.511V622.9l.689-.115c.371-.061.848-.141,1.051-.193.813-.177.733-.521.733,3.242,0,3.117.009,3.312.159,3.268a8.825,8.825,0,0,1,5.008-.1,4.38,4.38,0,0,1,2.792,3.144c.186.628.195.831.23,5.319l.035,4.655h-2.394v-3.366c0-3.762-.1-5.211-.4-6.112a2.3,2.3,0,0,0-2.147-1.74,7.491,7.491,0,0,0-2.8.22l-.442.106-.027,5.45-.017,5.442h-2.473Z" transform="translate(6.753 6.32)" fill="#640012"/>
    <path id="Path_12" data-name="Path 12" d="M1484.3,635.09v-6.581h2.474v13.162H1484.3Z" transform="translate(8.675 6.771)" fill="#640012"/>
    <path id="Path_13" data-name="Path 13" d="M1490.218,635.285v-6.4l.247-.044c.132-.036.4-.088.591-.132.4-.088,1.122-.212,2-.354a19.268,19.268,0,0,1,4.055.044,4.363,4.363,0,0,1,2.411,1.264,3.876,3.876,0,0,1,.9,1.563c.38,1.1.4,1.405.4,6.025v4.443h-2.385v-3.462c-.009-5.442-.132-6.29-1.033-7.156a3.754,3.754,0,0,0-2.226-.689,18.046,18.046,0,0,0-2.279.23l-.2.036v11.042h-2.474Z" transform="translate(9.119 6.753)" fill="#640012"/>
    <path id="Path_14" data-name="Path 14" d="M1406.506,626.532a1.639,1.639,0,0,1-.874-2.2,1.534,1.534,0,0,1,2.164-.715,1.325,1.325,0,0,1,.787,1.36,1.373,1.373,0,0,1-1.388,1.573A3.2,3.2,0,0,1,1406.506,626.532Z" transform="translate(2.767 6.39)" fill="#640012"/>
    <path id="Path_15" data-name="Path 15" d="M1484.988,626.532a1.653,1.653,0,0,1-.874-.76,1.791,1.791,0,0,1,.229-1.838,1.59,1.59,0,0,1,2.359.01,1.715,1.715,0,0,1,.318,1.466A1.557,1.557,0,0,1,1484.988,626.532Z" transform="translate(8.65 6.389)" fill="#640012"/>
    <path id="Path_16" data-name="Path 16" d="M1435.836,623.584c-.124-.088-.477-.317-.8-.494-.918-.521-1.052-.6-1.934-1.14-.46-.283-1.007-.6-1.2-.706s-.583-.337-.839-.5-.857-.539-1.316-.821-1.06-.654-1.326-.821-.7-.442-.954-.609c-.787-.5-1.476-.946-1.52-1.007a1.215,1.215,0,0,0-.238-.151c-.168-.088-2.677-1.8-2.9-1.979-.044-.044-.486-.353-.972-.7-.733-.53-1.512-1.1-1.944-1.431-.777-.592-1.652-1.281-1.864-1.466-.151-.124-.354-.292-.442-.362-.221-.168-1.2-.99-1.326-1.105-.052-.044-.538-.5-1.087-1.006a8.1,8.1,0,0,1-.962-.99c.035-.1,2.111-2.2,2.172-2.2.027,0,.469.415.98.919s1.105,1.06,1.308,1.219,1.041.83,1.854,1.493,1.8,1.431,2.192,1.713.751.557.794.591c.459.345,1.024.751,1.767,1.264.486.335.928.644.972.679.442.354,5.662,3.675,6.97,4.453.247.142.618.362.838.5s.565.327.76.424.451.256.574.345a2.666,2.666,0,0,0,1.114.53c.309,0,.476-.089,2.818-1.5.584-.354,1.5-.911,2.032-1.229a8.011,8.011,0,0,0,1-.645c.017-.044.088-.07.151-.07a.187.187,0,0,0,.15-.071,2.46,2.46,0,0,1,.469-.327c.874-.5,4.17-2.712,5.477-3.667,1.184-.865,2.482-1.819,2.606-1.917.071-.053.3-.239.5-.4s.591-.468.865-.689.7-.565.936-.769.662-.539.936-.75a34.822,34.822,0,0,0,4.356-4.488c.167-.22.361-.45.423-.521.2-.212,1.961-2.9,1.961-2.995a.15.15,0,0,1,.071-.124,25.294,25.294,0,0,0,1.7-3.471c.424-1.07.972-2.641,1.236-3.578.062-.221.142-.5.177-.619.08-.239.274-1.077.442-1.9.053-.291.132-.689.176-.883.159-.751.292-1.635.53-3.489.132-1.1.265-3.755.354-7.332.053-1.723.124-3.631.168-4.241.142-1.749.266-3.083.354-3.843.052-.388.132-1.042.185-1.458s.134-.972.186-1.236.132-.707.176-.972c.1-.513.133-.68.442-2.032.168-.751.557-2.253.8-3.092.264-.919.283-1.131.115-1.449a8.859,8.859,0,0,0-.892-1.06c-.4-.425-.839-.91-.972-1.1s-.266-.345-.292-.371a5.7,5.7,0,0,1-.882-1.564.484.484,0,0,1,.159-.283c.08-.08.53-.557.989-1.069s.884-.955.928-.99c.132-.1.22-.08.22.044a9.616,9.616,0,0,0,1.237,2.226,22.364,22.364,0,0,0,1.934,1.9c1.555,1.325,1.573,1.37,1.22,2.306-.124.31-.372,1.043-.548,1.625s-.354,1.158-.4,1.281a48.136,48.136,0,0,0-1.28,5.963,69.423,69.423,0,0,0-.752,8.922,88.76,88.76,0,0,1-.716,10.822,38.7,38.7,0,0,1-.936,4.417c-.124.415-.247.874-.292,1.016-.115.459-.8,2.473-.874,2.562a5.89,5.89,0,0,0-.274.618c-.247.645-1.369,2.968-1.811,3.745-.3.54-1.528,2.473-1.634,2.571-.027.027-.186.247-.354.494a37.977,37.977,0,0,1-6.174,6.528,2.956,2.956,0,0,0-.274.221c-.027.034-.459.388-.972.786s-.989.769-1.06.83c-.195.151-1.82,1.361-2.341,1.75-.8.583-2.455,1.722-3.4,2.34-.512.327-.945.628-.972.654a10.038,10.038,0,0,1-1.263.8c-.132.062-.239.133-.239.168a5.559,5.559,0,0,1-1.069.663c-.088.044-.167.115-.167.149s-.044.071-.1.071a1.712,1.712,0,0,0-.459.256c-.547.372-3.366,2.067-4.735,2.854-.167.1-.442.264-.618.388a1.832,1.832,0,0,1-.379.213,2.931,2.931,0,0,0-.486.264A1.438,1.438,0,0,1,1435.836,623.584Z" transform="translate(3.421 1.184)" fill="#640012"/>
    <path id="Path_17" data-name="Path 17" d="M1434.693,613.674c-.919-.565-2.032-1.255-2.474-1.537s-.9-.565-1.033-.627-.247-.132-.247-.168a1.324,1.324,0,0,0-.372-.266,3.8,3.8,0,0,1-.423-.256c-.027-.027-.283-.212-.574-.4s-.848-.574-1.237-.857-1.245-.892-1.9-1.351-1.228-.875-1.28-.911-.477-.362-.946-.706a11.218,11.218,0,0,1-.9-.724c-.026-.044.133-.168.362-.283a4.322,4.322,0,0,0,.689-.389c.151-.105.425-.3.609-.432a22.881,22.881,0,0,0,3.914-3.684,10.054,10.054,0,0,0,1.969-3.066,5.946,5.946,0,0,0,.115-4.187l-.071-.23-.45.406c-.247.23-.724.662-1.06.972a6.169,6.169,0,0,0-1.758,2.314c-.177.574-1.158,1.669-3.543,3.967a5.714,5.714,0,0,1-1.678,1.3,7.519,7.519,0,0,0-1.1.654,2.565,2.565,0,0,1-.565.354,1.5,1.5,0,0,1-.574-.557,4.313,4.313,0,0,1,.6-.662,5.161,5.161,0,0,0,1.077-1.317.986.986,0,0,1,.176-.291,2.047,2.047,0,0,0-.2-1.988,1.836,1.836,0,0,0-1.793-1.06,2.741,2.741,0,0,0-2.155,1.087c-.362.344-.672.636-.68.636a3.812,3.812,0,0,1-.273-.381c-.239-.335-.257-.4-.142-.547.071-.1.31-.513.539-.928a13.137,13.137,0,0,1,2.633-3.145,9.813,9.813,0,0,1,3.322-2.518,33.769,33.769,0,0,0,3.154-3.03,11.4,11.4,0,0,0-1.678-.327,6.142,6.142,0,0,0-2.5.213,8.511,8.511,0,0,0-2.12,1.1c-.151.141-.469.406-.708.591-.468.371-3.154,3.03-3.665,3.631-.168.2-.442.53-.61.733a1.5,1.5,0,0,1-.362.371c-.08,0-.177-.256-.425-1.06-.1-.318-.283-.848-.406-1.193a16.367,16.367,0,0,1-.75-2.782c-.062-.362-.168-.963-.247-1.325a65.116,65.116,0,0,1-.822-9.629c-.088-2.4-.141-3.208-.353-5.3-.213-2.245-.371-3.516-.53-4.285-.389-1.944-.469-2.287-.619-2.959-.044-.168-.132-.583-.212-.928-.327-1.4-.354-1.917-.124-2.367a6.6,6.6,0,0,1,.548-.707,13.289,13.289,0,0,0,2.491-4.3,3.8,3.8,0,0,1,.442-.945,2.568,2.568,0,0,1,.6-.212c.724-.159,1.024-.23,1.82-.433.821-.2.954-.239,2.252-.557.486-.124,1.422-.4,2.076-.61s1.413-.468,1.679-.547c.442-.142,2.226-.8,2.871-1.07a54.9,54.9,0,0,0,5.547-2.641c.477-.273.884-.494.9-.494s.459-.264.989-.583,1.175-.724,1.44-.884.53-.327.583-.371.389-.274.75-.513.725-.494.814-.574a1.231,1.231,0,0,1,1.1-.266,13.112,13.112,0,0,1,1.59,1.043.385.385,0,0,0,.195.115.383.383,0,0,1,.195.115,4.418,4.418,0,0,0,.556.371,4.345,4.345,0,0,1,.486.31,2.2,2.2,0,0,0,.221.149c.344.2,1.148.68,1.324.787.884.495,1.131.635,1.591.892.786.442,3.454,1.731,4.063,1.969a5.667,5.667,0,0,1,.618.265c.08.061,2.218.884,3.181,1.236.769.274,3.436,1.131,3.737,1.193.327.071.38.22.07.22a5.41,5.41,0,0,0-1.7.707,28.09,28.09,0,0,0-4.973,4.505c-.362.415-.689.769-.716.794s-.23.292-.45.592a6.57,6.57,0,0,0-1.167,3.295c-.079.946.151,2.844.345,2.827a22.777,22.777,0,0,0,2.774-2.819,3.061,3.061,0,0,0,.362-.609,5.331,5.331,0,0,1,.928-1.484c.247-.274.494-.592.565-.689a1.3,1.3,0,0,1,.185-.23c.027-.026.283-.362.575-.742a12.1,12.1,0,0,1,1.944-2.059c.256-.176.679-.415,1.6-.928a9.956,9.956,0,0,0,1.617-1.439l1.157-1.2.38.106c.2.053.424.115.486.132.176.053.017.239-1.325,1.625-1.554,1.6-1.643,1.7-1.891,2.262a2.134,2.134,0,0,0,.486,2.491,1.906,1.906,0,0,0,2.174.548c.477-.177.672-.335,1.873-1.556a17.371,17.371,0,0,1,1.432-1.36,2.592,2.592,0,0,1,.627.848,15.369,15.369,0,0,1-1.051,1.14,6.1,6.1,0,0,0-1.449,1.917,12.028,12.028,0,0,1-2.853,3.428,9.056,9.056,0,0,1-2.536,2.067,6.531,6.531,0,0,0-2.137,1.669c-.336.38-.813.909-1.051,1.175a2.708,2.708,0,0,0-.4.5,10.728,10.728,0,0,0,1.678.327,5.742,5.742,0,0,0,2.553-.283,7.153,7.153,0,0,0,1.679-.75c.07-.062.371-.283.662-.5.521-.379,3.074-2.853,4.028-3.9a8.089,8.089,0,0,0,1.405-1.925,1.257,1.257,0,0,1,.239-.415c.061,0,.009.335-.318,1.943a45.915,45.915,0,0,0-.9,6.537c-.142,1.776-.335,5.7-.345,6.828,0,.574-.035,1.432-.088,1.9s-.132,1.272-.176,1.784c-.106,1.024-.23,1.97-.362,2.783a19.976,19.976,0,0,1-.848,3.975,20.96,20.96,0,0,1-1.219,3.454,20.332,20.332,0,0,0-1.414,2.6,3.521,3.521,0,0,1-.406.627c-.115.133-.486.645-.821,1.141s-.751,1.051-.911,1.228a1.478,1.478,0,0,0-.291.4c0,.036-.627.689-1.387,1.448a28.983,28.983,0,0,1-3.074,2.8c-.194.151-.371.283-.4.318-.061.062-1.74,1.308-2.164,1.6-.76.521-1.2.83-2.385,1.7-1.024.742-5.539,3.666-6.449,4.169-.195.106-.689.4-1.1.645C1436.84,614.947,1436.778,614.937,1434.693,613.674Zm-8.7-16.766c.416-.186,2.43-2.174,8.189-8.057,3.34-3.41,3.154-3.207,3.49-3.86l.256-.521-.151-.689a2.144,2.144,0,0,0-1.043-1.573,1.568,1.568,0,0,0-1.069-.239,1.841,1.841,0,0,0-1.166.256c-.327.186-1.908,1.715-5.785,5.628-5.946,6-5.937,5.99-5.937,7.05a1.759,1.759,0,0,0,.186.936A2.194,2.194,0,0,0,1425.991,596.908Zm12.191-6.538a7.488,7.488,0,0,0,2.651-1.289c.026-.027.327-.283.662-.565a44.42,44.42,0,0,0,4.514-4.691,7.923,7.923,0,0,0,.866-1.943c.388-1.546.283-3.843-.2-4.1-.115-.062-.257.027-.681.459-.3.3-.716.707-.928.91a7.628,7.628,0,0,0-1.644,2.076,10.4,10.4,0,0,1-2.633,3.242,11.771,11.771,0,0,1-2.853,2.4c-.406,0-1.713,1.14-2.8,2.421-.68.8-.706.857-.565.945a.9.9,0,0,0,.345.088,1.135,1.135,0,0,1,.4.08A10.833,10.833,0,0,0,1438.182,590.37Zm-7.8-5.291c.3-.3.689-.689.874-.857a7.493,7.493,0,0,0,1.723-2.165c.53-1.086.715-1.324,2.685-3.276,1.847-1.838,2.279-2.192,2.959-2.448a7.777,7.777,0,0,0,2.5-2.059l1.113-1.157-.283-.1a7.876,7.876,0,0,0-5.521.61c-.636.318-1.3.91-3.6,3.208a15.747,15.747,0,0,0-2.518,2.791,6.178,6.178,0,0,0-1.007,3.843c0,1.281.177,2.165.425,2.165A2.606,2.606,0,0,0,1430.382,585.078Zm11.316-3.87c.327-.149,1.475-1.254,5.707-5.5,5.785-5.813,6.192-6.281,6.192-7.077a2.57,2.57,0,0,0-.61-1.7,1.856,1.856,0,0,0-1.554-.733c-1.025,0-1.122.08-5.079,4.063-1.962,1.97-3.711,3.738-3.905,3.941s-1.016,1.051-1.846,1.9c-1.74,1.775-2.015,2.2-2.015,3.117a2.122,2.122,0,0,0,.972,1.82A2.238,2.238,0,0,0,1441.7,581.209Z" transform="translate(3.115 0.705)" fill="#640012"/>
    <path id="Path_18" data-name="Path 18" d="M1411.965,605.739a36.709,36.709,0,0,1-2.031-3.144,35.786,35.786,0,0,1-1.881-3.887c-.106-.266-.23-.565-.266-.663-.185-.45-.388-1.016-.547-1.5-.151-.468-.23-.75-.513-1.766-.989-3.579-1.36-6.617-1.59-13.119-.247-6.828-.362-8.348-.875-11.44a46.817,46.817,0,0,0-1.2-5.477c-.088-.291-.186-.645-.221-.8s-.238-.742-.442-1.324a8.056,8.056,0,0,1-.415-1.529c-.044-.433-.026-.477.257-.751.4-.371.972-.892,1.626-1.431a7.651,7.651,0,0,0,1.36-1.37c.124-.168.274-.379.354-.459a14.718,14.718,0,0,0,.928-1.793,9.818,9.818,0,0,0,.627-3.083c.071-.98.168-1.149.725-1.229,1.007-.159,2.9-.512,4.479-.848,1.615-.344,2.032-.441,2.429-.564.22-.071.574-.177.794-.239s.495-.142.618-.177.46-.132.752-.212a58.083,58.083,0,0,0,5.715-1.988,3.075,3.075,0,0,1,.477-.186,9.152,9.152,0,0,0,1.139-.486c.248-.114.724-.327,1.06-.485.662-.3,2.014-.982,2.517-1.264.168-.1.565-.317.884-.486a8.817,8.817,0,0,0,.813-.476,1.059,1.059,0,0,1,.283-.159c.061,0,3.259-2.077,3.481-2.253.08-.071.486-.371.9-.68s.8-.6.865-.662a.387.387,0,0,1,.177-.115,1.268,1.268,0,0,0,.327-.247,4.476,4.476,0,0,1,1.925-1.255,3.876,3.876,0,0,1,1.52.936c.291.239.768.61,1.06.831s.547.424.574.45c.176.195,3.816,2.641,3.931,2.641a2.432,2.432,0,0,1,.424.247c.2.142.653.406.99.592s.759.415.928.512a59.173,59.173,0,0,0,12.058,4.832c.548.151,1.971.513,2.606.655.362.079.823.185,1.016.229,1.149.265,2.969.619,3.181.619.486.009.423.149-.486,1.068-.494.5-1.042,1.1-1.219,1.3-.292.362-.345.379-.672.344a12.365,12.365,0,0,1-1.864-.371c-.238-.07-.874-.229-1.413-.353s-1.069-.266-1.192-.31-.379-.115-.574-.159c-1.352-.371-3.543-1.024-4.153-1.255-.238-.088-.6-.212-.794-.274s-1.025-.371-1.856-.7a55.783,55.783,0,0,1-12.65-7.014c-.327-.247-.618-.468-.645-.495a1.9,1.9,0,0,0-.75-.442,6.116,6.116,0,0,0-1.37.884c-.027.026-.186.149-.354.264a4.194,4.194,0,0,0-.354.266,6.133,6.133,0,0,1-.512.344c-.266.168-.521.354-.584.406a48.822,48.822,0,0,1-4.293,2.677c-1.042.584-3.366,1.75-4.24,2.13-.265.115-.662.291-.883.388-.8.345-.936.4-1.37.548-.239.08-.556.195-.707.266-.662.283-3.64,1.3-4.417,1.5-.239.061-.919.256-1.5.424s-1.493.415-2.032.548-1.114.264-1.281.309-.486.115-.706.168c-.389.08-.521.115-1.838.416a2.762,2.762,0,0,0-.821.291,1.722,1.722,0,0,0-.308.715,5.33,5.33,0,0,1-.406,1.37.37.37,0,0,0-.071.2,12.931,12.931,0,0,1-1.228,2.438,13.182,13.182,0,0,1-1.909,2.333c-.8.848-.83.945-.583,1.784.124.424.362,1.307.45,1.678.036.168.178.707.3,1.193.3,1.2.388,1.59.486,2.208.052.291.132.769.185,1.06a69.658,69.658,0,0,1,.972,11.308,65.156,65.156,0,0,0,.7,9.452,25.806,25.806,0,0,0,.549,2.854c.159.635.75,2.738.945,3.33a32.372,32.372,0,0,0,2.2,4.991c.1.168.327.565.5.884s.547.884.821,1.263l.486.7-.821.848c-.46.459-.955.972-1.1,1.131l-.283.283Z" transform="translate(2.502)" fill="#640012"/>
  </g>
</svg>
