<svg xmlns="http://www.w3.org/2000/svg" width="105.695" height="86" viewBox="0 0 105.695 86">
  <g id="layer101" transform="translate(-1368.593 -538.194)">
    <path id="Path_3" data-name="Path 3" d="M1426.922,641.771a9.9,9.9,0,0,1-1.8-.423.826.826,0,0,1,.007-.37c.033-.186.1-.529.146-.773a1.075,1.075,0,0,1,.132-.449,2,2,0,0,1,.337.092,9.532,9.532,0,0,0,1.857.377,3.957,3.957,0,0,0,2.854-.548,2.691,2.691,0,0,0,.746-2.015l-.019-.271-.264.125a5.831,5.831,0,0,1-1.817.436,5.6,5.6,0,0,1-1.83-.238,3.8,3.8,0,0,1-1.546-.971,4.509,4.509,0,0,1-.72-1.1.238.238,0,0,0-.06-.146,4.737,4.737,0,0,1-.409-1.572,5.212,5.212,0,0,1,1.559-4.592,4.64,4.64,0,0,1,3.408-1.07,9.548,9.548,0,0,1,2.656.31l.839.178v4.736c0,4.419-.007,4.783-.125,5.371a3.071,3.071,0,0,1-.932,1.823,2.846,2.846,0,0,1-1.262.793.346.346,0,0,0-.165.053,4.753,4.753,0,0,1-1.215.277A9.975,9.975,0,0,1,1426.922,641.771Zm2.841-5.49a4.4,4.4,0,0,0,.879-.258c.634-.3.575.014.575-3.125a26.592,26.592,0,0,0-.066-2.821,7.358,7.358,0,0,0-1.685-.224,2.726,2.726,0,0,0-2.669,1.546,3.7,3.7,0,0,0-.337,1.8,3.153,3.153,0,0,0,.733,2.352,2.246,2.246,0,0,0,1.215.727A2.474,2.474,0,0,0,1429.763,636.282Z" transform="translate(-10.965 -17.667)" fill="#640012"/>
    <path id="Path_4" data-name="Path 4" d="M1448.286,637.628a5.72,5.72,0,0,1-2.114-.9,6.312,6.312,0,0,1-1.612-1.8,8.483,8.483,0,0,1-.74-2.035,11.228,11.228,0,0,1-.026-3.7,9.29,9.29,0,0,1,.634-1.856c.066-.125.185-.337.264-.469a5.842,5.842,0,0,1,3.065-2.444,5.087,5.087,0,0,1,2.247-.318,7.032,7.032,0,0,1,2.576.35,4.762,4.762,0,0,1,1.156.542c0,.066-.523,1.539-.562,1.579-.02.019-.059.006-.086-.026a7.713,7.713,0,0,0-2.985-.826,6.9,6.9,0,0,0-1.566.285,4.021,4.021,0,0,0-2.285,2.1,5.544,5.544,0,0,0-.542,2.041,7.393,7.393,0,0,0,.277,3.039,6.453,6.453,0,0,0,.608,1.275,3.568,3.568,0,0,0,1.79,1.347,6.277,6.277,0,0,0,4.38-.238c.594-.237.641-.244.641-.085a4.986,4.986,0,0,0,.2.674c.264.753.258.8-.079.951a7.889,7.889,0,0,1-3.389.608A6.616,6.616,0,0,1,1448.286,637.628Z" transform="translate(-14.723 -16.853)" fill="#640012"/>
    <path id="Path_5" data-name="Path 5" d="M1386.009,638.444a3.292,3.292,0,0,1-2.49-2.232c-.271-.826-.3-1.2-.3-4.512v-3.19h1.85v3.025c0,3.072.019,3.422.271,4.109.4,1.129,1.387,1.486,3.363,1.236l.627-.086.02-4.142.013-4.141h1.849v9.579l-.178.033c-.106.027-.3.066-.449.1-.423.092-1.024.2-1.519.265A15.049,15.049,0,0,1,1386.009,638.444Z" transform="translate(-2.869 -17.715)" fill="#640012"/>
    <path id="Path_6" data-name="Path 6" d="M1473.706,638.4a3.057,3.057,0,0,1-2.081-1.256,3.863,3.863,0,0,1-.125-3.217,3.381,3.381,0,0,1,1.81-1.367,7.853,7.853,0,0,1,2.874-.211,4.731,4.731,0,0,0,.581.106l.351.046-.047-.581c-.08-1.051-.363-1.56-1.063-1.909-.37-.191-.417-.2-1.275-.191a6.715,6.715,0,0,0-2.081.29c-.093.033-.185.066-.2.066a3.4,3.4,0,0,1-.185-.938c-.092-.634-.113-.588.317-.719a7.312,7.312,0,0,1,2.312-.285,4.3,4.3,0,0,1,2.246.357,2.725,2.725,0,0,1,1.322,1.275c.4.833.429,1.123.429,4.921,0,1.857-.02,3.383-.046,3.383s-.244.033-.482.066A17.633,17.633,0,0,1,1473.706,638.4Zm3.3-1.527c.092-.033.105-.224.105-1.446a7.488,7.488,0,0,0-.066-1.453,6.679,6.679,0,0,0-2.457-.106c-1.11.185-1.718.911-1.519,1.837.145.7.654,1.1,1.566,1.235A19.321,19.321,0,0,0,1477,636.869Z" transform="translate(-20.128 -17.66)" fill="#640012"/>
    <path id="Path_7" data-name="Path 7" d="M1372.689,631.848v-5.715h-4.1v-1.651H1378.7v1.651h-4.1v11.428h-1.916Z" transform="translate(0 -16.925)" fill="#640012"/>
    <path id="Path_8" data-name="Path 8" d="M1396.78,633.588v-4.717l.185-.066a11.956,11.956,0,0,1,1.8-.443,9.915,9.915,0,0,1,3.521.139c.152.053.138.191-.125,1.473-.026.125-.059.145-.211.112-.1-.019-.384-.079-.641-.138a5.55,5.55,0,0,0-2.035,0,3.861,3.861,0,0,0-.581.138c-.033.02-.06,1.771-.06,4.129V638.3h-1.85Z" transform="translate(-5.529 -17.668)" fill="#640012"/>
    <path id="Path_9" data-name="Path 9" d="M1405.82,633.43v-4.921h1.85v9.842h-1.85Z" transform="translate(-7.302 -17.715)" fill="#640012"/>
    <path id="Path_10" data-name="Path 10" d="M1411.819,633.514v-4.789l.185-.033c.1-.027.3-.066.443-.1.3-.066.839-.158,1.493-.264a14.891,14.891,0,0,1,3.032.027,3.246,3.246,0,0,1,2.682,2.913,30.154,30.154,0,0,1,.093,3.752V638.3h-1.771l-.033-3.184c-.026-3.006-.039-3.217-.172-3.673a1.861,1.861,0,0,0-.964-1.334,4.328,4.328,0,0,0-1.282-.264,13.485,13.485,0,0,0-1.7.172l-.152.027V638.3h-1.85Z" transform="translate(-8.479 -17.667)" fill="#640012"/>
    <path id="Path_11" data-name="Path 11" d="M1458.661,629.984V622.8l.515-.086c.277-.046.634-.105.786-.145.608-.133.548-.39.548,2.424,0,2.331.006,2.477.119,2.444a6.6,6.6,0,0,1,3.745-.072,3.275,3.275,0,0,1,2.088,2.351c.139.469.146.621.172,3.977l.026,3.481h-1.79v-2.517a17.035,17.035,0,0,0-.3-4.571,1.718,1.718,0,0,0-1.605-1.3,5.6,5.6,0,0,0-2.094.165l-.33.08-.02,4.076-.013,4.069h-1.85Z" transform="translate(-17.667 -16.535)" fill="#640012"/>
    <path id="Path_12" data-name="Path 12" d="M1484.3,633.43v-4.921h1.85v9.842h-1.85Z" transform="translate(-22.696 -17.715)" fill="#640012"/>
    <path id="Path_13" data-name="Path 13" d="M1490.218,633.514v-4.789l.185-.033c.1-.027.3-.066.442-.1.3-.066.839-.158,1.493-.264a14.405,14.405,0,0,1,3.032.033,3.262,3.262,0,0,1,1.8.945,2.9,2.9,0,0,1,.674,1.169c.284.819.3,1.051.3,4.506V638.3h-1.784v-2.589c-.007-4.069-.1-4.7-.772-5.351a2.808,2.808,0,0,0-1.665-.515,13.487,13.487,0,0,0-1.7.172l-.152.027V638.3h-1.85Z" transform="translate(-23.857 -17.667)" fill="#640012"/>
    <path id="Path_14" data-name="Path 14" d="M1406.252,625.748a1.226,1.226,0,0,1-.654-1.645,1.147,1.147,0,0,1,1.618-.535.991.991,0,0,1,.589,1.017,1.027,1.027,0,0,1-1.038,1.176A2.4,2.4,0,0,1,1406.252,625.748Z" transform="translate(-7.239 -16.718)" fill="#640012"/>
    <path id="Path_15" data-name="Path 15" d="M1484.729,625.746a1.236,1.236,0,0,1-.653-.568,1.339,1.339,0,0,1,.171-1.375,1.189,1.189,0,0,1,1.764.007,1.283,1.283,0,0,1,.238,1.1A1.165,1.165,0,0,1,1484.729,625.746Z" transform="translate(-22.63 -16.716)" fill="#640012"/>
    <path id="Path_16" data-name="Path 16" d="M1430.384,606.029c-.093-.066-.357-.237-.595-.37-.687-.39-.786-.449-1.446-.852-.344-.211-.753-.449-.9-.528s-.436-.252-.628-.377-.641-.4-.984-.614-.793-.489-.991-.614-.522-.33-.713-.456c-.588-.371-1.1-.707-1.137-.753a.911.911,0,0,0-.178-.113c-.125-.066-2-1.347-2.167-1.48-.033-.033-.363-.264-.727-.522-.548-.4-1.13-.819-1.453-1.07-.581-.443-1.236-.958-1.394-1.1-.113-.092-.265-.219-.331-.271-.166-.125-.9-.74-.991-.826-.039-.033-.4-.376-.812-.752a6.054,6.054,0,0,1-.719-.74c.026-.072,1.579-1.645,1.625-1.645.02,0,.351.31.733.687s.826.793.978.912.779.621,1.387,1.117,1.348,1.07,1.639,1.281.561.416.594.442c.343.258.766.562,1.322.945.364.251.694.482.727.508.33.264,4.234,2.748,5.212,3.33.185.106.462.271.627.377s.423.244.568.317.337.191.429.258a1.993,1.993,0,0,0,.833.4c.231,0,.356-.067,2.107-1.123.437-.265,1.123-.681,1.519-.919a5.983,5.983,0,0,0,.747-.482c.013-.033.066-.052.113-.052a.14.14,0,0,0,.112-.053,1.84,1.84,0,0,1,.35-.244c.654-.377,3.118-2.028,4.1-2.742.885-.647,1.856-1.36,1.948-1.433.053-.039.225-.178.377-.3s.442-.35.647-.515.521-.423.7-.575.5-.4.7-.561a26.037,26.037,0,0,0,3.257-3.356c.125-.165.27-.337.317-.39.152-.158,1.466-2.166,1.466-2.24a.112.112,0,0,1,.053-.092,18.913,18.913,0,0,0,1.268-2.6c.317-.8.727-1.975.925-2.675.047-.166.106-.371.133-.463.06-.178.205-.805.331-1.42.039-.218.1-.515.132-.66.119-.562.218-1.223.4-2.609.1-.819.2-2.808.264-5.483.04-1.289.093-2.715.125-3.171.106-1.308.2-2.305.264-2.874.039-.29.1-.779.138-1.09s.1-.727.139-.924.1-.529.132-.727c.073-.383.1-.509.33-1.519.125-.562.417-1.685.595-2.312.2-.687.211-.846.086-1.084a6.624,6.624,0,0,0-.667-.793c-.3-.318-.628-.681-.727-.819s-.2-.258-.219-.277a4.262,4.262,0,0,1-.66-1.17.362.362,0,0,1,.119-.211c.06-.06.4-.416.74-.8s.661-.714.694-.74c.1-.072.165-.06.165.033a7.192,7.192,0,0,0,.925,1.665,16.713,16.713,0,0,0,1.446,1.42c1.163.991,1.176,1.024.912,1.724-.093.232-.278.78-.41,1.215s-.265.866-.3.958a36.011,36.011,0,0,0-.957,4.459,51.914,51.914,0,0,0-.562,6.672,66.394,66.394,0,0,1-.535,8.092,28.951,28.951,0,0,1-.7,3.3c-.093.31-.185.654-.218.76-.086.343-.6,1.85-.653,1.916a4.4,4.4,0,0,0-.205.462c-.185.482-1.024,2.219-1.354,2.8-.224.4-1.142,1.85-1.222,1.923-.02.02-.139.185-.264.37a28.4,28.4,0,0,1-4.617,4.882,2.206,2.206,0,0,0-.205.166c-.02.026-.343.29-.727.588s-.739.575-.792.621c-.146.113-1.361,1.018-1.751,1.309-.6.436-1.836,1.288-2.543,1.75-.383.244-.707.469-.727.489a7.506,7.506,0,0,1-.945.6c-.1.047-.178.1-.178.125a4.156,4.156,0,0,1-.8.5c-.066.033-.125.086-.125.112s-.033.053-.073.053a1.281,1.281,0,0,0-.343.191c-.409.278-2.517,1.546-3.541,2.134-.125.072-.33.2-.462.29a1.368,1.368,0,0,1-.284.159,2.193,2.193,0,0,0-.363.2A1.075,1.075,0,0,1,1430.384,606.029Z" transform="translate(-8.95 -3.096)" fill="#640012"/>
    <path id="Path_17" data-name="Path 17" d="M1428.5,597.007c-.687-.423-1.519-.938-1.85-1.15s-.674-.423-.772-.469-.185-.1-.185-.125a.991.991,0,0,0-.278-.2,2.852,2.852,0,0,1-.317-.191c-.02-.02-.211-.158-.429-.3s-.634-.429-.925-.641-.931-.667-1.42-1.01-.918-.654-.957-.681-.357-.271-.707-.528a8.367,8.367,0,0,1-.674-.542c-.019-.033.1-.125.271-.211a3.232,3.232,0,0,0,.515-.291c.113-.079.318-.224.456-.323a17.111,17.111,0,0,0,2.927-2.755,7.517,7.517,0,0,0,1.473-2.293,4.446,4.446,0,0,0,.086-3.131l-.053-.172-.337.3c-.185.172-.542.5-.793.727a4.613,4.613,0,0,0-1.314,1.731c-.133.429-.866,1.248-2.65,2.966a4.274,4.274,0,0,1-1.255.971,5.621,5.621,0,0,0-.826.489,1.92,1.92,0,0,1-.423.264,1.125,1.125,0,0,1-.429-.416,3.227,3.227,0,0,1,.449-.5,3.86,3.86,0,0,0,.805-.985.737.737,0,0,1,.132-.218,1.531,1.531,0,0,0-.152-1.486,1.373,1.373,0,0,0-1.341-.793,2.049,2.049,0,0,0-1.612.813c-.271.257-.5.476-.509.476a2.863,2.863,0,0,1-.2-.285c-.178-.251-.192-.3-.106-.409.053-.073.232-.383.4-.694a9.824,9.824,0,0,1,1.969-2.352,7.338,7.338,0,0,1,2.484-1.883,25.269,25.269,0,0,0,2.359-2.266,8.526,8.526,0,0,0-1.255-.244,4.593,4.593,0,0,0-1.87.159,6.366,6.366,0,0,0-1.585.819c-.113.105-.35.3-.529.442-.35.277-2.358,2.266-2.741,2.715-.125.152-.33.4-.456.548a1.119,1.119,0,0,1-.271.277c-.059,0-.133-.191-.318-.793-.072-.238-.211-.634-.3-.892a12.241,12.241,0,0,1-.561-2.08c-.047-.271-.125-.72-.185-.991a48.7,48.7,0,0,1-.615-7.2c-.066-1.8-.105-2.4-.264-3.964-.159-1.678-.277-2.629-.4-3.2-.291-1.453-.35-1.711-.463-2.213-.033-.125-.1-.436-.158-.694-.244-1.05-.264-1.433-.092-1.77a4.932,4.932,0,0,1,.41-.529,9.936,9.936,0,0,0,1.862-3.217,2.846,2.846,0,0,1,.33-.707,1.92,1.92,0,0,1,.449-.158c.542-.119.766-.172,1.361-.324.614-.152.713-.178,1.684-.416.363-.092,1.063-.3,1.552-.456s1.057-.35,1.256-.409c.33-.106,1.665-.6,2.147-.8a41.038,41.038,0,0,0,4.148-1.975c.357-.2.661-.37.674-.37s.343-.2.74-.436.879-.542,1.077-.661.4-.244.436-.277.291-.2.561-.383.542-.37.609-.429a.92.92,0,0,1,.826-.2,9.814,9.814,0,0,1,1.189.78.287.287,0,0,0,.146.086.286.286,0,0,1,.146.086,3.292,3.292,0,0,0,.416.277,3.235,3.235,0,0,1,.363.232,1.651,1.651,0,0,0,.166.112c.257.152.859.509.99.588l1.19.667c.588.33,2.583,1.294,3.038,1.473a4.235,4.235,0,0,1,.462.2c.059.046,1.658.661,2.379.924.575.205,2.569.846,2.794.892.244.053.284.165.052.165a4.046,4.046,0,0,0-1.275.529,21,21,0,0,0-3.719,3.369c-.271.31-.515.575-.535.594s-.172.219-.337.443a5.184,5.184,0,0,0-.614,4.578,17.035,17.035,0,0,0,2.074-2.108,2.284,2.284,0,0,0,.271-.456,3.987,3.987,0,0,1,.694-1.109c.185-.2.37-.443.423-.515a.972.972,0,0,1,.138-.172c.02-.019.211-.271.43-.555a9.047,9.047,0,0,1,1.453-1.539c.191-.132.508-.31,1.2-.694a7.443,7.443,0,0,0,1.209-1.076l.865-.9.285.08c.152.039.317.086.363.1.132.039.013.178-.991,1.215-1.162,1.2-1.228,1.275-1.414,1.691a1.6,1.6,0,0,0,.363,1.863,1.425,1.425,0,0,0,1.625.41c.357-.133.5-.251,1.4-1.163a12.976,12.976,0,0,1,1.071-1.017,1.939,1.939,0,0,1,.469.634,11.5,11.5,0,0,1-.786.852,4.565,4.565,0,0,0-1.083,1.433,9,9,0,0,1-2.133,2.563,6.773,6.773,0,0,1-1.9,1.546,4.884,4.884,0,0,0-1.6,1.248c-.252.284-.608.68-.786.879a2.022,2.022,0,0,0-.3.376,8.02,8.02,0,0,0,1.255.244,4.3,4.3,0,0,0,1.909-.211,5.347,5.347,0,0,0,1.256-.561c.052-.047.277-.211.5-.377.39-.284,2.3-2.133,3.012-2.913a6.052,6.052,0,0,0,1.051-1.44.94.94,0,0,1,.178-.31c.046,0,.006.251-.238,1.453a34.333,34.333,0,0,0-.674,4.888c-.106,1.328-.251,4.26-.258,5.106,0,.429-.026,1.071-.066,1.42s-.1.951-.132,1.334c-.08.766-.172,1.473-.271,2.081a14.941,14.941,0,0,1-.634,2.973,15.665,15.665,0,0,1-.911,2.583,15.2,15.2,0,0,0-1.057,1.942,2.633,2.633,0,0,1-.3.469c-.086.1-.363.482-.614.853s-.562.786-.681.918a1.1,1.1,0,0,0-.218.3c0,.027-.469.515-1.037,1.083a21.677,21.677,0,0,1-2.3,2.094c-.145.113-.277.211-.3.238-.046.047-1.3.978-1.618,1.2-.568.39-.9.621-1.784,1.268-.766.555-4.142,2.741-4.822,3.117-.146.08-.515.3-.826.482C1430.1,597.959,1430.058,597.952,1428.5,597.007Zm-6.507-12.538c.311-.139,1.817-1.625,6.124-6.025,2.5-2.55,2.359-2.4,2.61-2.887l.191-.39-.113-.515a1.6,1.6,0,0,0-.78-1.176,1.173,1.173,0,0,0-.8-.179,1.376,1.376,0,0,0-.872.191c-.244.139-1.427,1.282-4.326,4.208-4.446,4.486-4.44,4.479-4.44,5.272a1.316,1.316,0,0,0,.139.7A1.641,1.641,0,0,0,1421.991,584.47Zm9.116-4.889a5.6,5.6,0,0,0,1.982-.964c.019-.02.244-.211.5-.423a33.217,33.217,0,0,0,3.375-3.508,5.925,5.925,0,0,0,.648-1.453c.29-1.156.211-2.874-.152-3.065-.086-.047-.192.02-.509.343-.225.225-.535.529-.694.681a5.705,5.705,0,0,0-1.229,1.552,7.779,7.779,0,0,1-1.969,2.424,8.8,8.8,0,0,1-2.134,1.8,6.112,6.112,0,0,0-2.094,1.81c-.509.6-.528.641-.423.707a.67.67,0,0,0,.258.066.848.848,0,0,1,.3.06A8.1,8.1,0,0,0,1431.108,579.581Zm-5.833-3.957c.224-.225.515-.515.654-.641a5.6,5.6,0,0,0,1.289-1.619c.4-.812.535-.99,2.008-2.45,1.381-1.375,1.7-1.639,2.213-1.83a5.817,5.817,0,0,0,1.87-1.539l.832-.865-.212-.073a5.89,5.89,0,0,0-4.129.456,13.192,13.192,0,0,0-2.689,2.4,11.78,11.78,0,0,0-1.883,2.087,4.62,4.62,0,0,0-.753,2.874c0,.958.133,1.619.318,1.619A1.949,1.949,0,0,0,1425.275,575.624Zm8.462-2.894a46.655,46.655,0,0,0,4.268-4.115c4.326-4.347,4.63-4.7,4.63-5.292a1.922,1.922,0,0,0-.456-1.268,1.388,1.388,0,0,0-1.162-.548c-.766,0-.839.06-3.8,3.039-1.467,1.473-2.775,2.795-2.92,2.947s-.76.786-1.38,1.42c-1.3,1.327-1.506,1.645-1.506,2.331a1.587,1.587,0,0,0,.727,1.361A1.673,1.673,0,0,0,1433.737,572.73Z" transform="translate(-8.148 -1.843)" fill="#640012"/>
    <path id="Path_18" data-name="Path 18" d="M1409.443,588.7a27.438,27.438,0,0,1-1.519-2.351,26.744,26.744,0,0,1-1.407-2.907c-.08-.2-.172-.423-.2-.5-.138-.337-.29-.76-.409-1.123s-.172-.561-.383-1.321a38.547,38.547,0,0,1-1.189-9.81,56.282,56.282,0,0,0-.654-8.555,35,35,0,0,0-.9-4.1c-.066-.218-.139-.482-.166-.595s-.178-.555-.33-.99a6.023,6.023,0,0,1-.31-1.143c-.033-.324-.019-.357.192-.562.3-.277.727-.667,1.216-1.07a5.723,5.723,0,0,0,1.017-1.024c.093-.125.205-.284.264-.343a11.011,11.011,0,0,0,.694-1.341,7.343,7.343,0,0,0,.469-2.305c.053-.733.125-.859.542-.919.753-.119,2.167-.383,3.35-.634,1.208-.257,1.519-.33,1.817-.422.165-.053.429-.133.594-.178l.462-.133c.093-.026.344-.1.562-.158a43.436,43.436,0,0,0,4.274-1.486,2.3,2.3,0,0,1,.357-.139,6.838,6.838,0,0,0,.852-.363c.185-.085.542-.244.793-.363.5-.225,1.506-.734,1.883-.945.125-.072.423-.237.661-.363a6.6,6.6,0,0,0,.608-.356.792.792,0,0,1,.211-.119c.046,0,2.437-1.553,2.6-1.685.06-.053.363-.277.674-.509s.6-.449.647-.5a.289.289,0,0,1,.133-.086.946.946,0,0,0,.244-.185,3.347,3.347,0,0,1,1.44-.938,2.9,2.9,0,0,1,1.137.7c.218.178.575.456.792.621s.409.317.429.337c.132.145,2.854,1.975,2.94,1.975a1.817,1.817,0,0,1,.317.185c.152.106.489.3.74.443s.568.31.694.383a44.251,44.251,0,0,0,9.017,3.613c.41.113,1.474.383,1.948.49.271.059.615.138.76.171.859.2,2.22.463,2.379.463.363.006.317.112-.364.8-.37.376-.78.819-.911.971-.218.271-.258.284-.5.257a9.244,9.244,0,0,1-1.394-.277c-.178-.052-.654-.171-1.057-.264s-.8-.2-.892-.232-.284-.086-.429-.119c-1.011-.277-2.649-.766-3.105-.938-.178-.066-.448-.158-.594-.205s-.766-.277-1.388-.522a41.716,41.716,0,0,1-9.459-5.245c-.244-.185-.462-.35-.482-.37a1.422,1.422,0,0,0-.561-.33,4.576,4.576,0,0,0-1.024.661c-.02.019-.139.112-.264.2a3.149,3.149,0,0,0-.264.2,4.57,4.57,0,0,1-.383.257c-.2.125-.39.264-.437.3a36.505,36.505,0,0,1-3.21,2c-.779.437-2.517,1.309-3.17,1.592-.2.086-.5.218-.661.29-.595.258-.7.3-1.024.41-.178.06-.416.146-.528.2-.5.211-2.722.971-3.3,1.123-.178.046-.687.191-1.123.317s-1.116.31-1.519.41-.833.2-.958.231-.363.086-.528.125c-.291.059-.39.086-1.375.311a2.064,2.064,0,0,0-.614.218,1.288,1.288,0,0,0-.231.535,3.983,3.983,0,0,1-.3,1.024.277.277,0,0,0-.053.152,9.67,9.67,0,0,1-.918,1.823,9.86,9.86,0,0,1-1.427,1.744c-.6.634-.621.707-.436,1.334.093.317.271.977.337,1.255.027.125.133.529.225.892.224.9.29,1.189.364,1.651.039.218.1.575.138.793a52.091,52.091,0,0,1,.727,8.456,48.73,48.73,0,0,0,.522,7.068,19.285,19.285,0,0,0,.41,2.134c.119.475.561,2.047.707,2.49a24.215,24.215,0,0,0,1.645,3.732c.073.125.244.423.377.661s.409.661.614.945l.363.522-.614.634c-.344.343-.714.727-.826.846l-.211.211Z" transform="translate(-6.546)" fill="#640012"/>
  </g>
</svg>
